G75*
%MOIN*%
%OFA0B0*%
%FSLAX24Y24*%
%IPPOS*%
%LPD*%
%AMOC8*
5,1,8,0,0,1.08239X$1,22.5*
%
%ADD10C,0.0600*%
%ADD11OC8,0.0560*%
%ADD12C,0.0780*%
%ADD13C,0.0660*%
%ADD14OC8,0.0520*%
%ADD15OC8,0.0600*%
%ADD16C,0.0240*%
%ADD17C,0.0120*%
%ADD18C,0.0700*%
D10*
X002650Y007458D02*
X003250Y007458D01*
X003250Y008442D02*
X002650Y008442D01*
X021150Y008442D02*
X021750Y008442D01*
X021750Y007458D02*
X021150Y007458D01*
X040150Y007458D02*
X040750Y007458D01*
X040750Y008442D02*
X040150Y008442D01*
X062150Y014974D02*
X062750Y014974D01*
X062750Y015958D02*
X062150Y015958D01*
X062150Y016942D02*
X062750Y016942D01*
X062750Y017926D02*
X062150Y017926D01*
X062150Y020981D02*
X062750Y020981D01*
X062750Y021966D02*
X062150Y021966D01*
X062150Y022950D02*
X062750Y022950D01*
X062750Y023934D02*
X062150Y023934D01*
X062150Y024919D02*
X062750Y024919D01*
D11*
X053450Y022450D03*
X052450Y022450D03*
X051450Y022450D03*
X050450Y022450D03*
X049450Y022450D03*
X048450Y022450D03*
X047450Y022450D03*
X046450Y022450D03*
X045450Y022450D03*
X044450Y022450D03*
X044450Y021450D03*
X045450Y021450D03*
X046450Y021450D03*
X047450Y021450D03*
X048450Y021450D03*
X049450Y021450D03*
X050450Y021450D03*
X051450Y021450D03*
X052450Y021450D03*
X053450Y021450D03*
X034450Y021450D03*
X033450Y021450D03*
X032450Y021450D03*
X031450Y021450D03*
X030450Y021450D03*
X029450Y021450D03*
X028450Y021450D03*
X027450Y021450D03*
X026450Y021450D03*
X025450Y021450D03*
X025450Y022450D03*
X026450Y022450D03*
X027450Y022450D03*
X028450Y022450D03*
X029450Y022450D03*
X030450Y022450D03*
X031450Y022450D03*
X032450Y022450D03*
X033450Y022450D03*
X034450Y022450D03*
X015450Y022450D03*
X014450Y022450D03*
X013450Y022450D03*
X012450Y022450D03*
X011450Y022450D03*
X010450Y022450D03*
X009450Y022450D03*
X008450Y022450D03*
X007450Y022450D03*
X006450Y022450D03*
X006450Y021450D03*
X007450Y021450D03*
X008450Y021450D03*
X009450Y021450D03*
X010450Y021450D03*
X011450Y021450D03*
X012450Y021450D03*
X013450Y021450D03*
X014450Y021450D03*
X015450Y021450D03*
X015450Y010450D03*
X014450Y010450D03*
X013450Y010450D03*
X012450Y010450D03*
X011450Y010450D03*
X010450Y010450D03*
X009450Y010450D03*
X008450Y010450D03*
X007450Y010450D03*
X006450Y010450D03*
X006450Y009450D03*
X007450Y009450D03*
X008450Y009450D03*
X009450Y009450D03*
X010450Y009450D03*
X011450Y009450D03*
X012450Y009450D03*
X013450Y009450D03*
X014450Y009450D03*
X015450Y009450D03*
X025450Y009450D03*
X026450Y009450D03*
X027450Y009450D03*
X028450Y009450D03*
X029450Y009450D03*
X030450Y009450D03*
X031450Y009450D03*
X032450Y009450D03*
X033450Y009450D03*
X034450Y009450D03*
X034450Y010450D03*
X033450Y010450D03*
X032450Y010450D03*
X031450Y010450D03*
X030450Y010450D03*
X029450Y010450D03*
X028450Y010450D03*
X027450Y010450D03*
X026450Y010450D03*
X025450Y010450D03*
X044450Y010450D03*
X045450Y010450D03*
X046450Y010450D03*
X047450Y010450D03*
X048450Y010450D03*
X049450Y010450D03*
X050450Y010450D03*
X051450Y010450D03*
X052450Y010450D03*
X053450Y010450D03*
X053450Y009450D03*
X052450Y009450D03*
X051450Y009450D03*
X050450Y009450D03*
X049450Y009450D03*
X048450Y009450D03*
X047450Y009450D03*
X046450Y009450D03*
X045450Y009450D03*
X044450Y009450D03*
D12*
X044940Y004340D02*
X044940Y003560D01*
X042960Y003560D02*
X042960Y004340D01*
X040910Y004340D02*
X040910Y003560D01*
X038930Y003560D02*
X038930Y004340D01*
X036970Y004340D02*
X036970Y003560D01*
X034990Y003560D02*
X034990Y004340D01*
X032910Y004340D02*
X032910Y003560D01*
X030930Y003560D02*
X030930Y004340D01*
X028970Y004340D02*
X028970Y003560D01*
X026990Y003560D02*
X026990Y004340D01*
X024940Y004340D02*
X024940Y003560D01*
X022960Y003560D02*
X022960Y004340D01*
X020910Y004340D02*
X020910Y003560D01*
X018930Y003560D02*
X018930Y004340D01*
X016970Y004340D02*
X016970Y003560D01*
X014990Y003560D02*
X014990Y004340D01*
X012910Y004340D02*
X012910Y003560D01*
X010930Y003560D02*
X010930Y004340D01*
X008970Y004340D02*
X008970Y003560D01*
X006990Y003560D02*
X006990Y004340D01*
X004940Y004340D02*
X004940Y003560D01*
X002960Y003560D02*
X002960Y004340D01*
X046990Y004340D02*
X046990Y003560D01*
X048970Y003560D02*
X048970Y004340D01*
X050930Y004340D02*
X050930Y003560D01*
X052910Y003560D02*
X052910Y004340D01*
X054990Y004340D02*
X054990Y003560D01*
X056970Y003560D02*
X056970Y004340D01*
X058930Y004340D02*
X058930Y003560D01*
X060910Y003560D02*
X060910Y004340D01*
X062060Y010460D02*
X062840Y010460D01*
X062840Y012440D02*
X062060Y012440D01*
X060910Y028060D02*
X060910Y028840D01*
X058930Y028840D02*
X058930Y028060D01*
X056970Y028060D02*
X056970Y028840D01*
X054990Y028840D02*
X054990Y028060D01*
X052910Y028060D02*
X052910Y028840D01*
X050930Y028840D02*
X050930Y028060D01*
X048970Y028060D02*
X048970Y028840D01*
X046990Y028840D02*
X046990Y028060D01*
X044940Y028060D02*
X044940Y028840D01*
X042960Y028840D02*
X042960Y028060D01*
X040910Y028060D02*
X040910Y028840D01*
X038930Y028840D02*
X038930Y028060D01*
X036970Y028060D02*
X036970Y028840D01*
X034990Y028840D02*
X034990Y028060D01*
X032910Y028060D02*
X032910Y028840D01*
X030930Y028840D02*
X030930Y028060D01*
X028970Y028060D02*
X028970Y028840D01*
X026990Y028840D02*
X026990Y028060D01*
X024940Y028060D02*
X024940Y028840D01*
X022960Y028840D02*
X022960Y028060D01*
X020910Y028060D02*
X020910Y028840D01*
X018930Y028840D02*
X018930Y028060D01*
X016970Y028060D02*
X016970Y028840D01*
X014990Y028840D02*
X014990Y028060D01*
X012910Y028060D02*
X012910Y028840D01*
X010930Y028840D02*
X010930Y028060D01*
X008970Y028060D02*
X008970Y028840D01*
X006990Y028840D02*
X006990Y028060D01*
X004940Y028060D02*
X004940Y028840D01*
X002960Y028840D02*
X002960Y028060D01*
D13*
X055950Y010950D03*
X059950Y010950D03*
D14*
X058950Y008450D03*
X061950Y006450D03*
X062950Y006450D03*
X062950Y008450D03*
D15*
X058450Y014950D03*
X057450Y014950D03*
X057450Y015950D03*
X058450Y015950D03*
X058450Y016950D03*
X057450Y016950D03*
X057450Y017950D03*
X058450Y017950D03*
X039950Y017950D03*
X038950Y017950D03*
X038950Y016950D03*
X039950Y016950D03*
X039950Y015950D03*
X038950Y015950D03*
X038950Y014950D03*
X039950Y014950D03*
X020450Y014950D03*
X019450Y014950D03*
X019450Y015950D03*
X020450Y015950D03*
X020450Y016950D03*
X019450Y016950D03*
X019450Y017950D03*
X020450Y017950D03*
D16*
X022458Y009450D02*
X021450Y008442D01*
X021450Y007458D02*
X033958Y007458D01*
X034450Y007950D01*
X034942Y007458D01*
X040450Y007458D01*
X052958Y007458D01*
X053450Y007950D01*
X053450Y009450D01*
X053450Y008450D01*
X053950Y007950D01*
X057950Y007950D01*
X058450Y008450D01*
X058950Y008450D01*
X044450Y009450D02*
X041458Y009450D01*
X040450Y008442D01*
X034450Y007950D02*
X034450Y009450D01*
X025450Y009450D02*
X022458Y009450D01*
X021450Y007458D02*
X015942Y007458D01*
X015450Y007950D01*
X015450Y009450D01*
X015450Y007950D02*
X014958Y007458D01*
X002950Y007458D01*
X002950Y008442D02*
X003958Y009450D01*
X006450Y009450D01*
D17*
X012450Y010450D02*
X012450Y010950D01*
X013450Y011950D01*
X030950Y011950D01*
X031450Y011450D01*
X031950Y011950D01*
X049950Y011950D01*
X050450Y011450D01*
X050950Y011950D01*
X050950Y013450D01*
X051450Y013950D01*
X058950Y013950D01*
X060450Y015450D01*
X060450Y016450D01*
X060942Y016942D01*
X062450Y016942D01*
X062450Y015958D02*
X061458Y015958D01*
X058950Y013450D01*
X051950Y013450D01*
X051450Y012950D01*
X051450Y010450D01*
X051950Y009950D01*
X051950Y008450D01*
X051450Y007950D01*
X049450Y007950D01*
X048950Y008450D01*
X048950Y010950D01*
X048450Y011450D01*
X032950Y011450D01*
X032450Y010950D01*
X032450Y010450D01*
X032950Y009950D01*
X032950Y008450D01*
X032450Y007950D01*
X030450Y007950D01*
X029950Y008450D01*
X029950Y010950D01*
X029450Y011450D01*
X013950Y011450D01*
X013450Y010950D01*
X013450Y010450D01*
X019450Y014950D02*
X019950Y015450D01*
X038450Y015450D01*
X038950Y014950D01*
X039450Y015450D01*
X056950Y015450D01*
X057450Y014950D01*
X057950Y015450D01*
X059450Y015450D01*
X059950Y015950D01*
X059950Y020450D01*
X060481Y020981D01*
X062450Y020981D01*
X062450Y021966D02*
X059966Y021966D01*
X059450Y021450D01*
X059450Y016950D01*
X058950Y016450D01*
X057950Y016450D01*
X057450Y015950D01*
X056950Y016450D01*
X039450Y016450D01*
X038950Y015950D01*
X038450Y016450D01*
X019950Y016450D01*
X019450Y015950D01*
X019450Y016950D02*
X019950Y017450D01*
X038450Y017450D01*
X038950Y016950D01*
X039450Y017450D01*
X056950Y017450D01*
X057450Y016950D01*
X057950Y017450D01*
X057950Y019950D01*
X058950Y020950D01*
X058950Y023450D01*
X059434Y023934D01*
X062450Y023934D01*
X062450Y024919D02*
X059419Y024919D01*
X058450Y023950D01*
X058450Y021450D01*
X055450Y018450D01*
X056950Y018450D01*
X057450Y017950D01*
X055450Y018450D02*
X039450Y018450D01*
X038950Y017950D01*
X038450Y018450D01*
X019950Y018450D01*
X019450Y017950D01*
X031450Y011450D02*
X031450Y010450D01*
X050450Y010450D02*
X050450Y011450D01*
D18*
X002830Y001268D02*
X002812Y001200D01*
X061588Y001200D01*
X061570Y001268D01*
X061570Y001632D01*
X061664Y001983D01*
X061846Y002297D01*
X062103Y002554D01*
X062417Y002736D01*
X062768Y002830D01*
X063132Y002830D01*
X063192Y002814D01*
X063192Y005720D01*
X062648Y005720D01*
X062450Y005918D01*
X062252Y005720D01*
X061648Y005720D01*
X061220Y006148D01*
X061220Y006752D01*
X061648Y007180D01*
X062252Y007180D01*
X062450Y006982D01*
X062648Y007180D01*
X063192Y007180D01*
X063192Y007720D01*
X062648Y007720D01*
X062220Y008148D01*
X062220Y008752D01*
X062648Y009180D01*
X063192Y009180D01*
X063192Y009675D01*
X063011Y009600D01*
X061889Y009600D01*
X061573Y009731D01*
X061331Y009973D01*
X061200Y010289D01*
X061200Y010631D01*
X061331Y010947D01*
X061573Y011189D01*
X061889Y011320D01*
X063011Y011320D01*
X063192Y011245D01*
X063192Y011655D01*
X063011Y011580D01*
X061889Y011580D01*
X061573Y011711D01*
X061331Y011953D01*
X061200Y012269D01*
X061200Y012611D01*
X061331Y012927D01*
X061573Y013169D01*
X061889Y013300D01*
X063011Y013300D01*
X063192Y013225D01*
X063192Y014327D01*
X063186Y014321D01*
X062903Y014204D01*
X061997Y014204D01*
X061714Y014321D01*
X061497Y014537D01*
X061380Y014820D01*
X061380Y015127D01*
X061383Y015133D01*
X059399Y013150D01*
X059250Y013001D01*
X059055Y012920D01*
X052170Y012920D01*
X051980Y012730D01*
X051980Y011041D01*
X052139Y011200D01*
X052761Y011200D01*
X052950Y011011D01*
X053139Y011200D01*
X053761Y011200D01*
X054200Y010761D01*
X054200Y010139D01*
X054011Y009950D01*
X054125Y009836D01*
X054164Y009983D01*
X054346Y010297D01*
X054603Y010554D01*
X054917Y010736D01*
X055150Y010798D01*
X055150Y011109D01*
X055272Y011403D01*
X055497Y011628D01*
X055791Y011750D01*
X056109Y011750D01*
X056403Y011628D01*
X056628Y011403D01*
X056750Y011109D01*
X056750Y010791D01*
X056628Y010497D01*
X056491Y010360D01*
X056554Y010297D01*
X056736Y009983D01*
X056830Y009632D01*
X056830Y009268D01*
X056736Y008917D01*
X056554Y008603D01*
X056492Y008540D01*
X057706Y008540D01*
X057950Y008784D01*
X058116Y008950D01*
X058333Y009040D01*
X058508Y009040D01*
X058648Y009180D01*
X059252Y009180D01*
X059680Y008752D01*
X059680Y008148D01*
X059252Y007720D01*
X058648Y007720D01*
X058601Y007767D01*
X058284Y007450D01*
X058067Y007360D01*
X053833Y007360D01*
X053735Y007400D01*
X053292Y006958D01*
X053075Y006868D01*
X041249Y006868D01*
X041186Y006805D01*
X040903Y006688D01*
X039997Y006688D01*
X039714Y006805D01*
X039651Y006868D01*
X034825Y006868D01*
X034608Y006958D01*
X034450Y007116D01*
X034292Y006958D01*
X034075Y006868D01*
X022249Y006868D01*
X022186Y006805D01*
X021903Y006688D01*
X020997Y006688D01*
X020714Y006805D01*
X020651Y006868D01*
X015825Y006868D01*
X015608Y006958D01*
X015450Y007116D01*
X015292Y006958D01*
X015075Y006868D01*
X003749Y006868D01*
X003686Y006805D01*
X003403Y006688D01*
X002497Y006688D01*
X002214Y006805D01*
X001997Y007022D01*
X001880Y007305D01*
X001880Y007611D01*
X001997Y007894D01*
X002053Y007950D01*
X001997Y008006D01*
X001880Y008289D01*
X001880Y008595D01*
X001997Y008878D01*
X002214Y009095D01*
X002497Y009212D01*
X002886Y009212D01*
X003624Y009950D01*
X003841Y010040D01*
X005799Y010040D01*
X005700Y010139D01*
X005700Y010761D01*
X006139Y011200D01*
X006761Y011200D01*
X006950Y011011D01*
X007139Y011200D01*
X007761Y011200D01*
X007950Y011011D01*
X008139Y011200D01*
X008761Y011200D01*
X008950Y011011D01*
X009139Y011200D01*
X009761Y011200D01*
X009950Y011011D01*
X010139Y011200D01*
X010761Y011200D01*
X010950Y011011D01*
X011139Y011200D01*
X011761Y011200D01*
X011920Y011041D01*
X011920Y011055D01*
X012001Y011250D01*
X013001Y012250D01*
X013150Y012399D01*
X013345Y012480D01*
X031055Y012480D01*
X031250Y012399D01*
X031450Y012200D01*
X031501Y012250D01*
X031650Y012399D01*
X031845Y012480D01*
X050055Y012480D01*
X050250Y012399D01*
X050420Y012230D01*
X050420Y013555D01*
X050501Y013750D01*
X050650Y013899D01*
X051150Y014399D01*
X051345Y014480D01*
X056831Y014480D01*
X056680Y014631D01*
X056680Y014920D01*
X040720Y014920D01*
X040720Y014631D01*
X040269Y014180D01*
X039631Y014180D01*
X039450Y014361D01*
X039269Y014180D01*
X038631Y014180D01*
X038180Y014631D01*
X038180Y014920D01*
X021220Y014920D01*
X021220Y014631D01*
X020769Y014180D01*
X020131Y014180D01*
X019950Y014361D01*
X019769Y014180D01*
X019131Y014180D01*
X018680Y014631D01*
X018680Y015269D01*
X018861Y015450D01*
X018680Y015631D01*
X018680Y016269D01*
X018861Y016450D01*
X018680Y016631D01*
X018680Y017269D01*
X018861Y017450D01*
X018680Y017631D01*
X018680Y018269D01*
X019131Y018720D01*
X019470Y018720D01*
X019501Y018750D01*
X019650Y018899D01*
X019845Y018980D01*
X038555Y018980D01*
X038750Y018899D01*
X038930Y018720D01*
X038970Y018720D01*
X039001Y018750D01*
X039150Y018899D01*
X039345Y018980D01*
X055230Y018980D01*
X057920Y021670D01*
X057920Y024055D01*
X058001Y024250D01*
X058150Y024399D01*
X059118Y025368D01*
X059313Y025449D01*
X061591Y025449D01*
X061714Y025571D01*
X061997Y025689D01*
X062903Y025689D01*
X063186Y025571D01*
X063192Y025565D01*
X063192Y028586D01*
X063132Y028570D01*
X062768Y028570D01*
X062417Y028664D01*
X062103Y028846D01*
X061846Y029103D01*
X061664Y029417D01*
X061570Y029768D01*
X061570Y030132D01*
X061664Y030483D01*
X061715Y030570D01*
X001200Y030570D01*
X001200Y027312D01*
X001268Y027330D01*
X001632Y027330D01*
X001983Y027236D01*
X002297Y027054D01*
X002554Y026797D01*
X002736Y026483D01*
X002830Y026132D01*
X002830Y025768D01*
X002736Y025417D01*
X002554Y025103D01*
X002297Y024846D01*
X001983Y024664D01*
X001632Y024570D01*
X001268Y024570D01*
X001200Y024588D01*
X001200Y002812D01*
X001268Y002830D01*
X001632Y002830D01*
X001983Y002736D01*
X002297Y002554D01*
X002554Y002297D01*
X002736Y001983D01*
X002830Y001632D01*
X002830Y001268D01*
X002830Y001310D02*
X061570Y001310D01*
X061679Y002008D02*
X002721Y002008D01*
X002789Y002700D02*
X002473Y002831D01*
X002231Y003073D01*
X002100Y003389D01*
X002100Y004511D01*
X002231Y004827D01*
X002473Y005069D01*
X002789Y005200D01*
X003131Y005200D01*
X003447Y005069D01*
X003689Y004827D01*
X003820Y004511D01*
X003820Y003389D01*
X003689Y003073D01*
X003447Y002831D01*
X003131Y002700D01*
X002789Y002700D01*
X002773Y002707D02*
X002034Y002707D01*
X003147Y002707D02*
X004753Y002707D01*
X004769Y002700D02*
X005111Y002700D01*
X005427Y002831D01*
X005669Y003073D01*
X005800Y003389D01*
X005800Y004511D01*
X005669Y004827D01*
X005427Y005069D01*
X005111Y005200D01*
X004769Y005200D01*
X004453Y005069D01*
X004211Y004827D01*
X004080Y004511D01*
X004080Y003389D01*
X004211Y003073D01*
X004453Y002831D01*
X004769Y002700D01*
X005127Y002707D02*
X006803Y002707D01*
X006819Y002700D02*
X007161Y002700D01*
X007477Y002831D01*
X007719Y003073D01*
X007850Y003389D01*
X007850Y004511D01*
X007719Y004827D01*
X007477Y005069D01*
X007161Y005200D01*
X006819Y005200D01*
X006503Y005069D01*
X006261Y004827D01*
X006130Y004511D01*
X006130Y003389D01*
X006261Y003073D01*
X006503Y002831D01*
X006819Y002700D01*
X007177Y002707D02*
X008783Y002707D01*
X008799Y002700D02*
X009141Y002700D01*
X009457Y002831D01*
X009699Y003073D01*
X009830Y003389D01*
X009830Y004511D01*
X009699Y004827D01*
X009457Y005069D01*
X009141Y005200D01*
X008799Y005200D01*
X008483Y005069D01*
X008241Y004827D01*
X008110Y004511D01*
X008110Y003389D01*
X008241Y003073D01*
X008483Y002831D01*
X008799Y002700D01*
X009157Y002707D02*
X010743Y002707D01*
X010759Y002700D02*
X011101Y002700D01*
X011417Y002831D01*
X011659Y003073D01*
X011790Y003389D01*
X011790Y004511D01*
X011659Y004827D01*
X011417Y005069D01*
X011101Y005200D01*
X010759Y005200D01*
X010443Y005069D01*
X010201Y004827D01*
X010070Y004511D01*
X010070Y003389D01*
X010201Y003073D01*
X010443Y002831D01*
X010759Y002700D01*
X011117Y002707D02*
X012723Y002707D01*
X012739Y002700D02*
X013081Y002700D01*
X013397Y002831D01*
X013639Y003073D01*
X013770Y003389D01*
X013770Y004511D01*
X013639Y004827D01*
X013397Y005069D01*
X013081Y005200D01*
X012739Y005200D01*
X012423Y005069D01*
X012181Y004827D01*
X012050Y004511D01*
X012050Y003389D01*
X012181Y003073D01*
X012423Y002831D01*
X012739Y002700D01*
X013097Y002707D02*
X014803Y002707D01*
X014819Y002700D02*
X015161Y002700D01*
X015477Y002831D01*
X015719Y003073D01*
X015850Y003389D01*
X015850Y004511D01*
X015719Y004827D01*
X015477Y005069D01*
X015161Y005200D01*
X014819Y005200D01*
X014503Y005069D01*
X014261Y004827D01*
X014130Y004511D01*
X014130Y003389D01*
X014261Y003073D01*
X014503Y002831D01*
X014819Y002700D01*
X015177Y002707D02*
X016783Y002707D01*
X016799Y002700D02*
X017141Y002700D01*
X017457Y002831D01*
X017699Y003073D01*
X017830Y003389D01*
X017830Y004511D01*
X017699Y004827D01*
X017457Y005069D01*
X017141Y005200D01*
X016799Y005200D01*
X016483Y005069D01*
X016241Y004827D01*
X016110Y004511D01*
X016110Y003389D01*
X016241Y003073D01*
X016483Y002831D01*
X016799Y002700D01*
X017157Y002707D02*
X018743Y002707D01*
X018759Y002700D02*
X019101Y002700D01*
X019417Y002831D01*
X019659Y003073D01*
X019790Y003389D01*
X019790Y004511D01*
X019659Y004827D01*
X019417Y005069D01*
X019101Y005200D01*
X018759Y005200D01*
X018443Y005069D01*
X018201Y004827D01*
X018070Y004511D01*
X018070Y003389D01*
X018201Y003073D01*
X018443Y002831D01*
X018759Y002700D01*
X019117Y002707D02*
X020723Y002707D01*
X020739Y002700D02*
X021081Y002700D01*
X021397Y002831D01*
X021639Y003073D01*
X021770Y003389D01*
X021770Y004511D01*
X021639Y004827D01*
X021397Y005069D01*
X021081Y005200D01*
X020739Y005200D01*
X020423Y005069D01*
X020181Y004827D01*
X020050Y004511D01*
X020050Y003389D01*
X020181Y003073D01*
X020423Y002831D01*
X020739Y002700D01*
X021097Y002707D02*
X022773Y002707D01*
X022789Y002700D02*
X023131Y002700D01*
X023447Y002831D01*
X023689Y003073D01*
X023820Y003389D01*
X023820Y004511D01*
X023689Y004827D01*
X023447Y005069D01*
X023131Y005200D01*
X022789Y005200D01*
X022473Y005069D01*
X022231Y004827D01*
X022100Y004511D01*
X022100Y003389D01*
X022231Y003073D01*
X022473Y002831D01*
X022789Y002700D01*
X023147Y002707D02*
X024753Y002707D01*
X024769Y002700D02*
X025111Y002700D01*
X025427Y002831D01*
X025669Y003073D01*
X025800Y003389D01*
X025800Y004511D01*
X025669Y004827D01*
X025427Y005069D01*
X025111Y005200D01*
X024769Y005200D01*
X024453Y005069D01*
X024211Y004827D01*
X024080Y004511D01*
X024080Y003389D01*
X024211Y003073D01*
X024453Y002831D01*
X024769Y002700D01*
X025127Y002707D02*
X026803Y002707D01*
X026819Y002700D02*
X027161Y002700D01*
X027477Y002831D01*
X027719Y003073D01*
X027850Y003389D01*
X027850Y004511D01*
X027719Y004827D01*
X027477Y005069D01*
X027161Y005200D01*
X026819Y005200D01*
X026503Y005069D01*
X026261Y004827D01*
X026130Y004511D01*
X026130Y003389D01*
X026261Y003073D01*
X026503Y002831D01*
X026819Y002700D01*
X027177Y002707D02*
X028783Y002707D01*
X028799Y002700D02*
X029141Y002700D01*
X029457Y002831D01*
X029699Y003073D01*
X029830Y003389D01*
X029830Y004511D01*
X029699Y004827D01*
X029457Y005069D01*
X029141Y005200D01*
X028799Y005200D01*
X028483Y005069D01*
X028241Y004827D01*
X028110Y004511D01*
X028110Y003389D01*
X028241Y003073D01*
X028483Y002831D01*
X028799Y002700D01*
X029157Y002707D02*
X030743Y002707D01*
X030759Y002700D02*
X031101Y002700D01*
X031417Y002831D01*
X031659Y003073D01*
X031790Y003389D01*
X031790Y004511D01*
X031659Y004827D01*
X031417Y005069D01*
X031101Y005200D01*
X030759Y005200D01*
X030443Y005069D01*
X030201Y004827D01*
X030070Y004511D01*
X030070Y003389D01*
X030201Y003073D01*
X030443Y002831D01*
X030759Y002700D01*
X031117Y002707D02*
X032723Y002707D01*
X032739Y002700D02*
X033081Y002700D01*
X033397Y002831D01*
X033639Y003073D01*
X033770Y003389D01*
X033770Y004511D01*
X033639Y004827D01*
X033397Y005069D01*
X033081Y005200D01*
X032739Y005200D01*
X032423Y005069D01*
X032181Y004827D01*
X032050Y004511D01*
X032050Y003389D01*
X032181Y003073D01*
X032423Y002831D01*
X032739Y002700D01*
X033097Y002707D02*
X034803Y002707D01*
X034819Y002700D02*
X035161Y002700D01*
X035477Y002831D01*
X035719Y003073D01*
X035850Y003389D01*
X035850Y004511D01*
X035719Y004827D01*
X035477Y005069D01*
X035161Y005200D01*
X034819Y005200D01*
X034503Y005069D01*
X034261Y004827D01*
X034130Y004511D01*
X034130Y003389D01*
X034261Y003073D01*
X034503Y002831D01*
X034819Y002700D01*
X035177Y002707D02*
X036783Y002707D01*
X036799Y002700D02*
X037141Y002700D01*
X037457Y002831D01*
X037699Y003073D01*
X037830Y003389D01*
X037830Y004511D01*
X037699Y004827D01*
X037457Y005069D01*
X037141Y005200D01*
X036799Y005200D01*
X036483Y005069D01*
X036241Y004827D01*
X036110Y004511D01*
X036110Y003389D01*
X036241Y003073D01*
X036483Y002831D01*
X036799Y002700D01*
X037157Y002707D02*
X038743Y002707D01*
X038759Y002700D02*
X039101Y002700D01*
X039417Y002831D01*
X039659Y003073D01*
X039790Y003389D01*
X039790Y004511D01*
X039659Y004827D01*
X039417Y005069D01*
X039101Y005200D01*
X038759Y005200D01*
X038443Y005069D01*
X038201Y004827D01*
X038070Y004511D01*
X038070Y003389D01*
X038201Y003073D01*
X038443Y002831D01*
X038759Y002700D01*
X039117Y002707D02*
X040723Y002707D01*
X040739Y002700D02*
X041081Y002700D01*
X041397Y002831D01*
X041639Y003073D01*
X041770Y003389D01*
X041770Y004511D01*
X041639Y004827D01*
X041397Y005069D01*
X041081Y005200D01*
X040739Y005200D01*
X040423Y005069D01*
X040181Y004827D01*
X040050Y004511D01*
X040050Y003389D01*
X040181Y003073D01*
X040423Y002831D01*
X040739Y002700D01*
X041097Y002707D02*
X042773Y002707D01*
X042789Y002700D02*
X043131Y002700D01*
X043447Y002831D01*
X043689Y003073D01*
X043820Y003389D01*
X043820Y004511D01*
X043689Y004827D01*
X043447Y005069D01*
X043131Y005200D01*
X042789Y005200D01*
X042473Y005069D01*
X042231Y004827D01*
X042100Y004511D01*
X042100Y003389D01*
X042231Y003073D01*
X042473Y002831D01*
X042789Y002700D01*
X043147Y002707D02*
X044753Y002707D01*
X044769Y002700D02*
X045111Y002700D01*
X045427Y002831D01*
X045669Y003073D01*
X045800Y003389D01*
X045800Y004511D01*
X045669Y004827D01*
X045427Y005069D01*
X045111Y005200D01*
X044769Y005200D01*
X044453Y005069D01*
X044211Y004827D01*
X044080Y004511D01*
X044080Y003389D01*
X044211Y003073D01*
X044453Y002831D01*
X044769Y002700D01*
X045127Y002707D02*
X046803Y002707D01*
X046819Y002700D02*
X047161Y002700D01*
X047477Y002831D01*
X047719Y003073D01*
X047850Y003389D01*
X047850Y004511D01*
X047719Y004827D01*
X047477Y005069D01*
X047161Y005200D01*
X046819Y005200D01*
X046503Y005069D01*
X046261Y004827D01*
X046130Y004511D01*
X046130Y003389D01*
X046261Y003073D01*
X046503Y002831D01*
X046819Y002700D01*
X047177Y002707D02*
X048783Y002707D01*
X048799Y002700D02*
X049141Y002700D01*
X049457Y002831D01*
X049699Y003073D01*
X049830Y003389D01*
X049830Y004511D01*
X049699Y004827D01*
X049457Y005069D01*
X049141Y005200D01*
X048799Y005200D01*
X048483Y005069D01*
X048241Y004827D01*
X048110Y004511D01*
X048110Y003389D01*
X048241Y003073D01*
X048483Y002831D01*
X048799Y002700D01*
X049157Y002707D02*
X050743Y002707D01*
X050759Y002700D02*
X051101Y002700D01*
X051417Y002831D01*
X051659Y003073D01*
X051790Y003389D01*
X051790Y004511D01*
X051659Y004827D01*
X051417Y005069D01*
X051101Y005200D01*
X050759Y005200D01*
X050443Y005069D01*
X050201Y004827D01*
X050070Y004511D01*
X050070Y003389D01*
X050201Y003073D01*
X050443Y002831D01*
X050759Y002700D01*
X051117Y002707D02*
X052723Y002707D01*
X052739Y002700D02*
X053081Y002700D01*
X053397Y002831D01*
X053639Y003073D01*
X053770Y003389D01*
X053770Y004511D01*
X053639Y004827D01*
X053397Y005069D01*
X053081Y005200D01*
X052739Y005200D01*
X052423Y005069D01*
X052181Y004827D01*
X052050Y004511D01*
X052050Y003389D01*
X052181Y003073D01*
X052423Y002831D01*
X052739Y002700D01*
X053097Y002707D02*
X054803Y002707D01*
X054819Y002700D02*
X055161Y002700D01*
X055477Y002831D01*
X055719Y003073D01*
X055850Y003389D01*
X055850Y004511D01*
X055719Y004827D01*
X055477Y005069D01*
X055161Y005200D01*
X054819Y005200D01*
X054503Y005069D01*
X054261Y004827D01*
X054130Y004511D01*
X054130Y003389D01*
X054261Y003073D01*
X054503Y002831D01*
X054819Y002700D01*
X055177Y002707D02*
X056783Y002707D01*
X056799Y002700D02*
X057141Y002700D01*
X057457Y002831D01*
X057699Y003073D01*
X057830Y003389D01*
X057830Y004511D01*
X057699Y004827D01*
X057457Y005069D01*
X057141Y005200D01*
X056799Y005200D01*
X056483Y005069D01*
X056241Y004827D01*
X056110Y004511D01*
X056110Y003389D01*
X056241Y003073D01*
X056483Y002831D01*
X056799Y002700D01*
X057157Y002707D02*
X058743Y002707D01*
X058759Y002700D02*
X059101Y002700D01*
X059417Y002831D01*
X059659Y003073D01*
X059790Y003389D01*
X059790Y004511D01*
X059659Y004827D01*
X059417Y005069D01*
X059101Y005200D01*
X058759Y005200D01*
X058443Y005069D01*
X058201Y004827D01*
X058070Y004511D01*
X058070Y003389D01*
X058201Y003073D01*
X058443Y002831D01*
X058759Y002700D01*
X059117Y002707D02*
X060723Y002707D01*
X060739Y002700D02*
X061081Y002700D01*
X061397Y002831D01*
X061639Y003073D01*
X061770Y003389D01*
X061770Y004511D01*
X061639Y004827D01*
X061397Y005069D01*
X061081Y005200D01*
X060739Y005200D01*
X060423Y005069D01*
X060181Y004827D01*
X060050Y004511D01*
X060050Y003389D01*
X060181Y003073D01*
X060423Y002831D01*
X060739Y002700D01*
X061097Y002707D02*
X062366Y002707D01*
X061770Y003405D02*
X063192Y003405D01*
X063192Y004104D02*
X061770Y004104D01*
X060050Y004104D02*
X059790Y004104D01*
X059790Y003405D02*
X060050Y003405D01*
X058070Y003405D02*
X057830Y003405D01*
X057830Y004104D02*
X058070Y004104D01*
X058191Y004802D02*
X057709Y004802D01*
X056231Y004802D02*
X055729Y004802D01*
X054251Y004802D02*
X053649Y004802D01*
X052171Y004802D02*
X051669Y004802D01*
X050191Y004802D02*
X049709Y004802D01*
X048231Y004802D02*
X047729Y004802D01*
X046251Y004802D02*
X045679Y004802D01*
X045800Y004104D02*
X046130Y004104D01*
X046130Y003405D02*
X045800Y003405D01*
X044080Y003405D02*
X043820Y003405D01*
X043820Y004104D02*
X044080Y004104D01*
X044201Y004802D02*
X043699Y004802D01*
X042221Y004802D02*
X041649Y004802D01*
X041770Y004104D02*
X042100Y004104D01*
X042100Y003405D02*
X041770Y003405D01*
X040050Y003405D02*
X039790Y003405D01*
X039790Y004104D02*
X040050Y004104D01*
X040171Y004802D02*
X039669Y004802D01*
X038191Y004802D02*
X037709Y004802D01*
X036231Y004802D02*
X035729Y004802D01*
X034251Y004802D02*
X033649Y004802D01*
X032171Y004802D02*
X031669Y004802D01*
X030191Y004802D02*
X029709Y004802D01*
X028231Y004802D02*
X027729Y004802D01*
X026251Y004802D02*
X025679Y004802D01*
X024201Y004802D02*
X023699Y004802D01*
X022221Y004802D02*
X021649Y004802D01*
X020171Y004802D02*
X019669Y004802D01*
X019790Y004104D02*
X020050Y004104D01*
X020050Y003405D02*
X019790Y003405D01*
X018070Y003405D02*
X017830Y003405D01*
X017830Y004104D02*
X018070Y004104D01*
X018191Y004802D02*
X017709Y004802D01*
X016231Y004802D02*
X015729Y004802D01*
X015850Y004104D02*
X016110Y004104D01*
X016110Y003405D02*
X015850Y003405D01*
X014130Y003405D02*
X013770Y003405D01*
X013770Y004104D02*
X014130Y004104D01*
X014251Y004802D02*
X013649Y004802D01*
X012171Y004802D02*
X011669Y004802D01*
X010191Y004802D02*
X009709Y004802D01*
X008231Y004802D02*
X007729Y004802D01*
X006251Y004802D02*
X005679Y004802D01*
X004201Y004802D02*
X003699Y004802D01*
X002221Y004802D02*
X001200Y004802D01*
X001200Y005501D02*
X063192Y005501D01*
X063192Y004802D02*
X061649Y004802D01*
X060171Y004802D02*
X059669Y004802D01*
X061220Y006199D02*
X001200Y006199D01*
X001200Y006898D02*
X002121Y006898D01*
X001880Y007596D02*
X001200Y007596D01*
X001200Y008295D02*
X001880Y008295D01*
X002112Y008993D02*
X001200Y008993D01*
X001200Y009692D02*
X003365Y009692D01*
X004202Y008860D02*
X005979Y008860D01*
X006139Y008700D01*
X006761Y008700D01*
X006950Y008889D01*
X007139Y008700D01*
X007761Y008700D01*
X007950Y008889D01*
X008139Y008700D01*
X008761Y008700D01*
X008950Y008889D01*
X009139Y008700D01*
X009761Y008700D01*
X009950Y008889D01*
X010139Y008700D01*
X010761Y008700D01*
X010950Y008889D01*
X011139Y008700D01*
X011761Y008700D01*
X011950Y008889D01*
X012139Y008700D01*
X012761Y008700D01*
X012950Y008889D01*
X013139Y008700D01*
X013761Y008700D01*
X013950Y008889D01*
X014139Y008700D01*
X014761Y008700D01*
X014860Y008799D01*
X014860Y008194D01*
X014713Y008048D01*
X003920Y008048D01*
X004020Y008289D01*
X004020Y008595D01*
X003996Y008654D01*
X004202Y008860D01*
X004020Y008295D02*
X014860Y008295D01*
X016040Y008295D02*
X016692Y008295D01*
X016603Y008346D02*
X016917Y008164D01*
X017268Y008070D01*
X017632Y008070D01*
X017983Y008164D01*
X018297Y008346D01*
X018554Y008603D01*
X018736Y008917D01*
X018830Y009268D01*
X018830Y009632D01*
X018736Y009983D01*
X018554Y010297D01*
X018297Y010554D01*
X017983Y010736D01*
X017632Y010830D01*
X017268Y010830D01*
X016917Y010736D01*
X016603Y010554D01*
X016346Y010297D01*
X016164Y009983D01*
X016125Y009836D01*
X016011Y009950D01*
X016200Y010139D01*
X016200Y010761D01*
X016041Y010920D01*
X024859Y010920D01*
X024700Y010761D01*
X024700Y010139D01*
X024799Y010040D01*
X022341Y010040D01*
X022124Y009950D01*
X021386Y009212D01*
X020997Y009212D01*
X020714Y009095D01*
X020497Y008878D01*
X020380Y008595D01*
X020380Y008289D01*
X020480Y008048D01*
X016187Y008048D01*
X016040Y008194D01*
X016040Y008979D01*
X016125Y009064D01*
X016164Y008917D01*
X016346Y008603D01*
X016603Y008346D01*
X016144Y008993D02*
X016054Y008993D01*
X018208Y008295D02*
X020380Y008295D01*
X020612Y008993D02*
X018756Y008993D01*
X018814Y009692D02*
X021865Y009692D01*
X022702Y008860D02*
X024979Y008860D01*
X025139Y008700D01*
X025761Y008700D01*
X025950Y008889D01*
X026139Y008700D01*
X026761Y008700D01*
X026950Y008889D01*
X027139Y008700D01*
X027761Y008700D01*
X027950Y008889D01*
X028139Y008700D01*
X028761Y008700D01*
X028950Y008889D01*
X029139Y008700D01*
X029420Y008700D01*
X029420Y008345D01*
X029501Y008150D01*
X029603Y008048D01*
X022420Y008048D01*
X022520Y008289D01*
X022520Y008595D01*
X022496Y008654D01*
X022702Y008860D01*
X022520Y008295D02*
X029441Y008295D01*
X030480Y008670D02*
X030480Y008700D01*
X030761Y008700D01*
X030950Y008889D01*
X031139Y008700D01*
X031761Y008700D01*
X031950Y008889D01*
X032139Y008700D01*
X032420Y008700D01*
X032420Y008670D01*
X032230Y008480D01*
X030670Y008480D01*
X030480Y008670D01*
X033297Y008048D02*
X033399Y008150D01*
X033480Y008345D01*
X033480Y008700D01*
X033761Y008700D01*
X033860Y008799D01*
X033860Y008194D01*
X033713Y008048D01*
X033297Y008048D01*
X033459Y008295D02*
X033860Y008295D01*
X035040Y008295D02*
X035692Y008295D01*
X035603Y008346D02*
X035917Y008164D01*
X036268Y008070D01*
X036632Y008070D01*
X036983Y008164D01*
X037297Y008346D01*
X037554Y008603D01*
X037736Y008917D01*
X037830Y009268D01*
X037830Y009632D01*
X037736Y009983D01*
X037554Y010297D01*
X037297Y010554D01*
X036983Y010736D01*
X036632Y010830D01*
X036268Y010830D01*
X035917Y010736D01*
X035603Y010554D01*
X035346Y010297D01*
X035164Y009983D01*
X035125Y009836D01*
X035011Y009950D01*
X035200Y010139D01*
X035200Y010761D01*
X035041Y010920D01*
X043859Y010920D01*
X043700Y010761D01*
X043700Y010139D01*
X043799Y010040D01*
X041341Y010040D01*
X041124Y009950D01*
X040386Y009212D01*
X039997Y009212D01*
X039714Y009095D01*
X039497Y008878D01*
X039380Y008595D01*
X039380Y008289D01*
X039480Y008048D01*
X035187Y008048D01*
X035040Y008194D01*
X035040Y008979D01*
X035125Y009064D01*
X035164Y008917D01*
X035346Y008603D01*
X035603Y008346D01*
X035144Y008993D02*
X035054Y008993D01*
X035200Y010390D02*
X035439Y010390D01*
X037461Y010390D02*
X043700Y010390D01*
X043979Y008860D02*
X041702Y008860D01*
X041496Y008654D01*
X041520Y008595D01*
X041520Y008289D01*
X041420Y008048D01*
X048603Y008048D01*
X048501Y008150D01*
X048420Y008345D01*
X048420Y008700D01*
X048139Y008700D01*
X047950Y008889D01*
X047761Y008700D01*
X047139Y008700D01*
X046950Y008889D01*
X046761Y008700D01*
X046139Y008700D01*
X045950Y008889D01*
X045761Y008700D01*
X045139Y008700D01*
X044950Y008889D01*
X044761Y008700D01*
X044139Y008700D01*
X043979Y008860D01*
X041520Y008295D02*
X048441Y008295D01*
X049480Y008670D02*
X049670Y008480D01*
X051230Y008480D01*
X051420Y008670D01*
X051420Y008700D01*
X051139Y008700D01*
X050950Y008889D01*
X050761Y008700D01*
X050139Y008700D01*
X049950Y008889D01*
X049761Y008700D01*
X049480Y008700D01*
X049480Y008670D01*
X052297Y008048D02*
X052399Y008150D01*
X052480Y008345D01*
X052480Y008700D01*
X052761Y008700D01*
X052860Y008799D01*
X052860Y008194D01*
X052713Y008048D01*
X052297Y008048D01*
X052459Y008295D02*
X052860Y008295D01*
X054040Y008694D02*
X054040Y008979D01*
X054125Y009064D01*
X054164Y008917D01*
X054346Y008603D01*
X054408Y008540D01*
X054194Y008540D01*
X054040Y008694D01*
X054054Y008993D02*
X054144Y008993D01*
X054200Y010390D02*
X054439Y010390D01*
X053872Y011089D02*
X055150Y011089D01*
X056521Y010390D02*
X059379Y010390D01*
X059272Y010497D02*
X059497Y010272D01*
X059791Y010150D01*
X060109Y010150D01*
X060403Y010272D01*
X060628Y010497D01*
X060750Y010791D01*
X060750Y011109D01*
X060628Y011403D01*
X060403Y011628D01*
X060109Y011750D01*
X059791Y011750D01*
X059497Y011628D01*
X059272Y011403D01*
X059150Y011109D01*
X059150Y010791D01*
X059272Y010497D01*
X059150Y011089D02*
X056750Y011089D01*
X056814Y009692D02*
X061668Y009692D01*
X061200Y010390D02*
X060521Y010390D01*
X060750Y011089D02*
X061472Y011089D01*
X061497Y011787D02*
X051980Y011787D01*
X051980Y011089D02*
X052028Y011089D01*
X052872Y011089D02*
X053028Y011089D01*
X051980Y012486D02*
X061200Y012486D01*
X061609Y013184D02*
X059434Y013184D01*
X060132Y013883D02*
X063192Y013883D01*
X061479Y014581D02*
X060831Y014581D01*
X060980Y016230D02*
X060980Y016230D01*
X061162Y016412D01*
X061170Y016412D01*
X061158Y016407D01*
X060980Y016230D01*
X059420Y016170D02*
X059420Y016170D01*
X059230Y015980D01*
X059220Y015980D01*
X059220Y015988D01*
X059250Y016001D01*
X059399Y016150D01*
X059420Y016170D01*
X060480Y017230D02*
X060480Y020230D01*
X060701Y020451D01*
X061591Y020451D01*
X061714Y020329D01*
X061997Y020211D01*
X062903Y020211D01*
X063186Y020329D01*
X063192Y020335D01*
X063192Y018573D01*
X063186Y018579D01*
X062903Y018696D01*
X061997Y018696D01*
X061714Y018579D01*
X061497Y018363D01*
X061380Y018080D01*
X061380Y017773D01*
X061497Y017490D01*
X061515Y017472D01*
X060837Y017472D01*
X060642Y017391D01*
X060480Y017230D01*
X060480Y017375D02*
X060625Y017375D01*
X060480Y018074D02*
X061380Y018074D01*
X060480Y018772D02*
X063192Y018772D01*
X063192Y019471D02*
X060480Y019471D01*
X060480Y020169D02*
X063192Y020169D01*
X060193Y021436D02*
X060181Y021431D01*
X059980Y021230D01*
X060185Y021436D01*
X060193Y021436D01*
X059980Y021230D02*
X059980Y021230D01*
X059480Y022230D02*
X059480Y023230D01*
X059654Y023404D01*
X061515Y023404D01*
X061497Y023386D01*
X061380Y023103D01*
X061380Y022797D01*
X061497Y022514D01*
X061515Y022496D01*
X059860Y022496D01*
X059666Y022415D01*
X059480Y022230D01*
X059480Y022265D02*
X059515Y022265D01*
X059480Y022963D02*
X061380Y022963D01*
X057920Y022963D02*
X053998Y022963D01*
X054200Y022761D02*
X053761Y023200D01*
X053139Y023200D01*
X052950Y023011D01*
X052761Y023200D01*
X052139Y023200D01*
X051950Y023011D01*
X051761Y023200D01*
X051139Y023200D01*
X050950Y023011D01*
X050761Y023200D01*
X050139Y023200D01*
X049950Y023011D01*
X049761Y023200D01*
X049139Y023200D01*
X048950Y023011D01*
X048761Y023200D01*
X048139Y023200D01*
X047950Y023011D01*
X047761Y023200D01*
X047139Y023200D01*
X046950Y023011D01*
X046761Y023200D01*
X046139Y023200D01*
X045950Y023011D01*
X045761Y023200D01*
X045139Y023200D01*
X044950Y023011D01*
X044761Y023200D01*
X044139Y023200D01*
X043700Y022761D01*
X043700Y022545D01*
X043554Y022797D01*
X043297Y023054D01*
X042983Y023236D01*
X042632Y023330D01*
X042268Y023330D01*
X041917Y023236D01*
X041603Y023054D01*
X041346Y022797D01*
X041164Y022483D01*
X041070Y022132D01*
X041070Y021768D01*
X041164Y021417D01*
X041346Y021103D01*
X041603Y020846D01*
X041917Y020664D01*
X042268Y020570D01*
X042632Y020570D01*
X042983Y020664D01*
X043297Y020846D01*
X043554Y021103D01*
X043700Y021355D01*
X043700Y021139D01*
X044139Y020700D01*
X044761Y020700D01*
X044950Y020889D01*
X045139Y020700D01*
X045761Y020700D01*
X045950Y020889D01*
X046139Y020700D01*
X046761Y020700D01*
X046950Y020889D01*
X047139Y020700D01*
X047761Y020700D01*
X047950Y020889D01*
X048139Y020700D01*
X048761Y020700D01*
X048950Y020889D01*
X049139Y020700D01*
X049761Y020700D01*
X049950Y020889D01*
X050139Y020700D01*
X050761Y020700D01*
X050950Y020889D01*
X051139Y020700D01*
X051761Y020700D01*
X051950Y020889D01*
X052139Y020700D01*
X052761Y020700D01*
X052950Y020889D01*
X053139Y020700D01*
X053761Y020700D01*
X054200Y021139D01*
X054200Y021761D01*
X054011Y021950D01*
X054200Y022139D01*
X054200Y022761D01*
X054200Y022265D02*
X057920Y022265D01*
X057816Y021566D02*
X054200Y021566D01*
X053928Y020868D02*
X057118Y020868D01*
X056419Y020169D02*
X001200Y020169D01*
X001200Y019471D02*
X055721Y019471D01*
X056730Y018980D02*
X057420Y019670D01*
X057420Y018730D01*
X057250Y018899D01*
X057055Y018980D01*
X056730Y018980D01*
X057378Y018772D02*
X057420Y018772D01*
X058480Y018772D02*
X058920Y018772D01*
X058769Y018720D02*
X058480Y018720D01*
X058480Y019730D01*
X058920Y020170D01*
X058920Y018569D01*
X058769Y018720D01*
X058920Y019471D02*
X058480Y019471D01*
X057420Y019471D02*
X057220Y019471D01*
X058919Y020169D02*
X058920Y020169D01*
X052972Y020868D02*
X052928Y020868D01*
X051972Y020868D02*
X051928Y020868D01*
X050972Y020868D02*
X050928Y020868D01*
X049972Y020868D02*
X049928Y020868D01*
X048972Y020868D02*
X048928Y020868D01*
X047972Y020868D02*
X047928Y020868D01*
X046972Y020868D02*
X046928Y020868D01*
X045972Y020868D02*
X045928Y020868D01*
X044972Y020868D02*
X044928Y020868D01*
X043972Y020868D02*
X043319Y020868D01*
X043830Y021891D02*
X043889Y021950D01*
X043830Y022009D01*
X043830Y021891D01*
X043902Y022963D02*
X043388Y022963D01*
X041512Y022963D02*
X034998Y022963D01*
X035200Y022761D02*
X034761Y023200D01*
X034139Y023200D01*
X033950Y023011D01*
X033761Y023200D01*
X033139Y023200D01*
X032950Y023011D01*
X032761Y023200D01*
X032139Y023200D01*
X031950Y023011D01*
X031761Y023200D01*
X031139Y023200D01*
X030950Y023011D01*
X030761Y023200D01*
X030139Y023200D01*
X029950Y023011D01*
X029761Y023200D01*
X029139Y023200D01*
X028950Y023011D01*
X028761Y023200D01*
X028139Y023200D01*
X027950Y023011D01*
X027761Y023200D01*
X027139Y023200D01*
X026950Y023011D01*
X026761Y023200D01*
X026139Y023200D01*
X025950Y023011D01*
X025761Y023200D01*
X025139Y023200D01*
X024700Y022761D01*
X024700Y022545D01*
X024554Y022797D01*
X024297Y023054D01*
X023983Y023236D01*
X023632Y023330D01*
X023268Y023330D01*
X022917Y023236D01*
X022603Y023054D01*
X022346Y022797D01*
X022164Y022483D01*
X022070Y022132D01*
X022070Y021768D01*
X022164Y021417D01*
X022346Y021103D01*
X022603Y020846D01*
X022917Y020664D01*
X023268Y020570D01*
X023632Y020570D01*
X023983Y020664D01*
X024297Y020846D01*
X024554Y021103D01*
X024700Y021355D01*
X024700Y021139D01*
X025139Y020700D01*
X025761Y020700D01*
X025950Y020889D01*
X026139Y020700D01*
X026761Y020700D01*
X026950Y020889D01*
X027139Y020700D01*
X027761Y020700D01*
X027950Y020889D01*
X028139Y020700D01*
X028761Y020700D01*
X028950Y020889D01*
X029139Y020700D01*
X029761Y020700D01*
X029950Y020889D01*
X030139Y020700D01*
X030761Y020700D01*
X030950Y020889D01*
X031139Y020700D01*
X031761Y020700D01*
X031950Y020889D01*
X032139Y020700D01*
X032761Y020700D01*
X032950Y020889D01*
X033139Y020700D01*
X033761Y020700D01*
X033950Y020889D01*
X034139Y020700D01*
X034761Y020700D01*
X035200Y021139D01*
X035200Y021761D01*
X035011Y021950D01*
X035200Y022139D01*
X035200Y022761D01*
X035200Y022265D02*
X041106Y022265D01*
X041124Y021566D02*
X035200Y021566D01*
X034928Y020868D02*
X041581Y020868D01*
X039022Y018772D02*
X038878Y018772D01*
X033972Y020868D02*
X033928Y020868D01*
X032972Y020868D02*
X032928Y020868D01*
X031972Y020868D02*
X031928Y020868D01*
X030972Y020868D02*
X030928Y020868D01*
X029972Y020868D02*
X029928Y020868D01*
X028972Y020868D02*
X028928Y020868D01*
X027972Y020868D02*
X027928Y020868D01*
X026972Y020868D02*
X026928Y020868D01*
X025972Y020868D02*
X025928Y020868D01*
X024972Y020868D02*
X024319Y020868D01*
X024830Y021891D02*
X024889Y021950D01*
X024830Y022009D01*
X024830Y021891D01*
X024902Y022963D02*
X024388Y022963D01*
X022512Y022963D02*
X015998Y022963D01*
X016200Y022761D02*
X015761Y023200D01*
X015139Y023200D01*
X014950Y023011D01*
X014761Y023200D01*
X014139Y023200D01*
X013950Y023011D01*
X013761Y023200D01*
X013139Y023200D01*
X012950Y023011D01*
X012761Y023200D01*
X012139Y023200D01*
X011950Y023011D01*
X011761Y023200D01*
X011139Y023200D01*
X010950Y023011D01*
X010761Y023200D01*
X010139Y023200D01*
X009950Y023011D01*
X009761Y023200D01*
X009139Y023200D01*
X008950Y023011D01*
X008761Y023200D01*
X008139Y023200D01*
X007950Y023011D01*
X007761Y023200D01*
X007139Y023200D01*
X006950Y023011D01*
X006761Y023200D01*
X006139Y023200D01*
X005700Y022761D01*
X005700Y022545D01*
X005554Y022797D01*
X005297Y023054D01*
X004983Y023236D01*
X004632Y023330D01*
X004268Y023330D01*
X003917Y023236D01*
X003603Y023054D01*
X003346Y022797D01*
X003164Y022483D01*
X003070Y022132D01*
X003070Y021768D01*
X003164Y021417D01*
X003346Y021103D01*
X003603Y020846D01*
X003917Y020664D01*
X004268Y020570D01*
X004632Y020570D01*
X004983Y020664D01*
X005297Y020846D01*
X005554Y021103D01*
X005700Y021355D01*
X005700Y021139D01*
X006139Y020700D01*
X006761Y020700D01*
X006950Y020889D01*
X007139Y020700D01*
X007761Y020700D01*
X007950Y020889D01*
X008139Y020700D01*
X008761Y020700D01*
X008950Y020889D01*
X009139Y020700D01*
X009761Y020700D01*
X009950Y020889D01*
X010139Y020700D01*
X010761Y020700D01*
X010950Y020889D01*
X011139Y020700D01*
X011761Y020700D01*
X011950Y020889D01*
X012139Y020700D01*
X012761Y020700D01*
X012950Y020889D01*
X013139Y020700D01*
X013761Y020700D01*
X013950Y020889D01*
X014139Y020700D01*
X014761Y020700D01*
X014950Y020889D01*
X015139Y020700D01*
X015761Y020700D01*
X016200Y021139D01*
X016200Y021761D01*
X016011Y021950D01*
X016200Y022139D01*
X016200Y022761D01*
X016200Y022265D02*
X022106Y022265D01*
X022124Y021566D02*
X016200Y021566D01*
X015928Y020868D02*
X022581Y020868D01*
X019522Y018772D02*
X001200Y018772D01*
X001200Y018074D02*
X018680Y018074D01*
X018786Y017375D02*
X001200Y017375D01*
X001200Y016677D02*
X018680Y016677D01*
X018680Y015978D02*
X001200Y015978D01*
X001200Y015280D02*
X018691Y015280D01*
X018730Y014581D02*
X001200Y014581D01*
X001200Y013883D02*
X050633Y013883D01*
X050420Y013184D02*
X001200Y013184D01*
X001200Y012486D02*
X050420Y012486D01*
X049730Y011420D02*
X049230Y011420D01*
X049250Y011399D01*
X049250Y011399D01*
X049399Y011250D01*
X049420Y011200D01*
X049761Y011200D01*
X049920Y011041D01*
X049920Y011230D01*
X049730Y011420D01*
X049872Y011089D02*
X049920Y011089D01*
X056756Y008993D02*
X058219Y008993D01*
X059439Y008993D02*
X062461Y008993D01*
X062220Y008295D02*
X059680Y008295D01*
X058430Y007596D02*
X063192Y007596D01*
X061365Y006898D02*
X053147Y006898D01*
X053770Y004104D02*
X054130Y004104D01*
X054130Y003405D02*
X053770Y003405D01*
X052050Y003405D02*
X051790Y003405D01*
X051790Y004104D02*
X052050Y004104D01*
X050070Y004104D02*
X049830Y004104D01*
X049830Y003405D02*
X050070Y003405D01*
X048110Y003405D02*
X047850Y003405D01*
X047850Y004104D02*
X048110Y004104D01*
X055850Y004104D02*
X056110Y004104D01*
X056110Y003405D02*
X055850Y003405D01*
X040865Y009692D02*
X037814Y009692D01*
X037756Y008993D02*
X039612Y008993D01*
X039380Y008295D02*
X037208Y008295D01*
X034753Y006898D02*
X034147Y006898D01*
X034130Y004104D02*
X033770Y004104D01*
X033770Y003405D02*
X034130Y003405D01*
X035850Y003405D02*
X036110Y003405D01*
X036110Y004104D02*
X035850Y004104D01*
X037830Y004104D02*
X038070Y004104D01*
X038070Y003405D02*
X037830Y003405D01*
X032050Y003405D02*
X031790Y003405D01*
X031790Y004104D02*
X032050Y004104D01*
X030070Y004104D02*
X029830Y004104D01*
X029830Y003405D02*
X030070Y003405D01*
X028110Y003405D02*
X027850Y003405D01*
X027850Y004104D02*
X028110Y004104D01*
X026130Y004104D02*
X025800Y004104D01*
X025800Y003405D02*
X026130Y003405D01*
X024080Y003405D02*
X023820Y003405D01*
X023820Y004104D02*
X024080Y004104D01*
X022100Y004104D02*
X021770Y004104D01*
X021770Y003405D02*
X022100Y003405D01*
X015753Y006898D02*
X015147Y006898D01*
X012050Y004104D02*
X011790Y004104D01*
X011790Y003405D02*
X012050Y003405D01*
X010070Y003405D02*
X009830Y003405D01*
X009830Y004104D02*
X010070Y004104D01*
X008110Y004104D02*
X007850Y004104D01*
X007850Y003405D02*
X008110Y003405D01*
X006130Y003405D02*
X005800Y003405D01*
X005800Y004104D02*
X006130Y004104D01*
X004080Y004104D02*
X003820Y004104D01*
X003820Y003405D02*
X004080Y003405D01*
X002100Y003405D02*
X001200Y003405D01*
X001200Y004104D02*
X002100Y004104D01*
X001200Y010390D02*
X005700Y010390D01*
X006028Y011089D02*
X001200Y011089D01*
X001200Y011787D02*
X012537Y011787D01*
X011934Y011089D02*
X011872Y011089D01*
X011028Y011089D02*
X010872Y011089D01*
X010028Y011089D02*
X009872Y011089D01*
X009028Y011089D02*
X008872Y011089D01*
X008028Y011089D02*
X007872Y011089D01*
X007028Y011089D02*
X006872Y011089D01*
X016200Y010390D02*
X016439Y010390D01*
X018461Y010390D02*
X024700Y010390D01*
X030230Y011420D02*
X030730Y011420D01*
X030920Y011230D01*
X030920Y011041D01*
X030761Y011200D01*
X030420Y011200D01*
X030399Y011250D01*
X030250Y011399D01*
X030230Y011420D01*
X030872Y011089D02*
X030920Y011089D01*
X031980Y011200D02*
X031980Y011230D01*
X032170Y011420D01*
X032170Y011420D01*
X032001Y011250D01*
X031980Y011200D01*
X038230Y014581D02*
X021170Y014581D01*
X014972Y020868D02*
X014928Y020868D01*
X013972Y020868D02*
X013928Y020868D01*
X012972Y020868D02*
X012928Y020868D01*
X011972Y020868D02*
X011928Y020868D01*
X010972Y020868D02*
X010928Y020868D01*
X009972Y020868D02*
X009928Y020868D01*
X008972Y020868D02*
X008928Y020868D01*
X007972Y020868D02*
X007928Y020868D01*
X006972Y020868D02*
X006928Y020868D01*
X005972Y020868D02*
X005319Y020868D01*
X005830Y021891D02*
X005889Y021950D01*
X005830Y022009D01*
X005830Y021891D01*
X005902Y022963D02*
X005388Y022963D01*
X003512Y022963D02*
X001200Y022963D01*
X001200Y022265D02*
X003106Y022265D01*
X003124Y021566D02*
X001200Y021566D01*
X001200Y020868D02*
X003581Y020868D01*
X001200Y023662D02*
X057920Y023662D01*
X058110Y024360D02*
X001200Y024360D01*
X002510Y025059D02*
X058809Y025059D01*
X058759Y027200D02*
X058443Y027331D01*
X058201Y027573D01*
X058070Y027889D01*
X058070Y029011D01*
X058201Y029327D01*
X058443Y029569D01*
X058759Y029700D01*
X059101Y029700D01*
X059417Y029569D01*
X059659Y029327D01*
X059790Y029011D01*
X059790Y027889D01*
X059659Y027573D01*
X059417Y027331D01*
X059101Y027200D01*
X058759Y027200D01*
X058085Y027853D02*
X057815Y027853D01*
X057830Y027889D02*
X057699Y027573D01*
X057457Y027331D01*
X057141Y027200D01*
X056799Y027200D01*
X056483Y027331D01*
X056241Y027573D01*
X056110Y027889D01*
X056110Y029011D01*
X056241Y029327D01*
X056483Y029569D01*
X056799Y029700D01*
X057141Y029700D01*
X057457Y029569D01*
X057699Y029327D01*
X057830Y029011D01*
X057830Y027889D01*
X057830Y028551D02*
X058070Y028551D01*
X058169Y029250D02*
X057731Y029250D01*
X056209Y029250D02*
X055751Y029250D01*
X055719Y029327D02*
X055477Y029569D01*
X055161Y029700D01*
X054819Y029700D01*
X054503Y029569D01*
X054261Y029327D01*
X054130Y029011D01*
X054130Y027889D01*
X054261Y027573D01*
X054503Y027331D01*
X054819Y027200D01*
X055161Y027200D01*
X055477Y027331D01*
X055719Y027573D01*
X055850Y027889D01*
X055850Y029011D01*
X055719Y029327D01*
X055850Y028551D02*
X056110Y028551D01*
X056125Y027853D02*
X055835Y027853D01*
X054145Y027853D02*
X053755Y027853D01*
X053770Y027889D02*
X053639Y027573D01*
X053397Y027331D01*
X053081Y027200D01*
X052739Y027200D01*
X052423Y027331D01*
X052181Y027573D01*
X052050Y027889D01*
X052050Y029011D01*
X052181Y029327D01*
X052423Y029569D01*
X052739Y029700D01*
X053081Y029700D01*
X053397Y029569D01*
X053639Y029327D01*
X053770Y029011D01*
X053770Y027889D01*
X053770Y028551D02*
X054130Y028551D01*
X054229Y029250D02*
X053671Y029250D01*
X052149Y029250D02*
X051691Y029250D01*
X051659Y029327D02*
X051417Y029569D01*
X051101Y029700D01*
X050759Y029700D01*
X050443Y029569D01*
X050201Y029327D01*
X050070Y029011D01*
X050070Y027889D01*
X050201Y027573D01*
X050443Y027331D01*
X050759Y027200D01*
X051101Y027200D01*
X051417Y027331D01*
X051659Y027573D01*
X051790Y027889D01*
X051790Y029011D01*
X051659Y029327D01*
X051790Y028551D02*
X052050Y028551D01*
X052065Y027853D02*
X051775Y027853D01*
X050085Y027853D02*
X049815Y027853D01*
X049830Y027889D02*
X049699Y027573D01*
X049457Y027331D01*
X049141Y027200D01*
X048799Y027200D01*
X048483Y027331D01*
X048241Y027573D01*
X048110Y027889D01*
X048110Y029011D01*
X048241Y029327D01*
X048483Y029569D01*
X048799Y029700D01*
X049141Y029700D01*
X049457Y029569D01*
X049699Y029327D01*
X049830Y029011D01*
X049830Y027889D01*
X049830Y028551D02*
X050070Y028551D01*
X050169Y029250D02*
X049731Y029250D01*
X048209Y029250D02*
X047751Y029250D01*
X047719Y029327D02*
X047477Y029569D01*
X047161Y029700D01*
X046819Y029700D01*
X046503Y029569D01*
X046261Y029327D01*
X046130Y029011D01*
X046130Y027889D01*
X046261Y027573D01*
X046503Y027331D01*
X046819Y027200D01*
X047161Y027200D01*
X047477Y027331D01*
X047719Y027573D01*
X047850Y027889D01*
X047850Y029011D01*
X047719Y029327D01*
X047850Y028551D02*
X048110Y028551D01*
X048125Y027853D02*
X047835Y027853D01*
X046145Y027853D02*
X045785Y027853D01*
X045800Y027889D02*
X045669Y027573D01*
X045427Y027331D01*
X045111Y027200D01*
X044769Y027200D01*
X044453Y027331D01*
X044211Y027573D01*
X044080Y027889D01*
X044080Y029011D01*
X044211Y029327D01*
X044453Y029569D01*
X044769Y029700D01*
X045111Y029700D01*
X045427Y029569D01*
X045669Y029327D01*
X045800Y029011D01*
X045800Y027889D01*
X045800Y028551D02*
X046130Y028551D01*
X046229Y029250D02*
X045701Y029250D01*
X044179Y029250D02*
X043721Y029250D01*
X043689Y029327D02*
X043447Y029569D01*
X043131Y029700D01*
X042789Y029700D01*
X042473Y029569D01*
X042231Y029327D01*
X042100Y029011D01*
X042100Y027889D01*
X042231Y027573D01*
X042473Y027331D01*
X042789Y027200D01*
X043131Y027200D01*
X043447Y027331D01*
X043689Y027573D01*
X043820Y027889D01*
X043820Y029011D01*
X043689Y029327D01*
X043820Y028551D02*
X044080Y028551D01*
X044095Y027853D02*
X043805Y027853D01*
X042115Y027853D02*
X041755Y027853D01*
X041770Y027889D02*
X041639Y027573D01*
X041397Y027331D01*
X041081Y027200D01*
X040739Y027200D01*
X040423Y027331D01*
X040181Y027573D01*
X040050Y027889D01*
X040050Y029011D01*
X040181Y029327D01*
X040423Y029569D01*
X040739Y029700D01*
X041081Y029700D01*
X041397Y029569D01*
X041639Y029327D01*
X041770Y029011D01*
X041770Y027889D01*
X041770Y028551D02*
X042100Y028551D01*
X042199Y029250D02*
X041671Y029250D01*
X040149Y029250D02*
X039691Y029250D01*
X039659Y029327D02*
X039417Y029569D01*
X039101Y029700D01*
X038759Y029700D01*
X038443Y029569D01*
X038201Y029327D01*
X038070Y029011D01*
X038070Y027889D01*
X038201Y027573D01*
X038443Y027331D01*
X038759Y027200D01*
X039101Y027200D01*
X039417Y027331D01*
X039659Y027573D01*
X039790Y027889D01*
X039790Y029011D01*
X039659Y029327D01*
X039790Y028551D02*
X040050Y028551D01*
X040065Y027853D02*
X039775Y027853D01*
X038085Y027853D02*
X037815Y027853D01*
X037830Y027889D02*
X037699Y027573D01*
X037457Y027331D01*
X037141Y027200D01*
X036799Y027200D01*
X036483Y027331D01*
X036241Y027573D01*
X036110Y027889D01*
X036110Y029011D01*
X036241Y029327D01*
X036483Y029569D01*
X036799Y029700D01*
X037141Y029700D01*
X037457Y029569D01*
X037699Y029327D01*
X037830Y029011D01*
X037830Y027889D01*
X037830Y028551D02*
X038070Y028551D01*
X038169Y029250D02*
X037731Y029250D01*
X036209Y029250D02*
X035751Y029250D01*
X035719Y029327D02*
X035477Y029569D01*
X035161Y029700D01*
X034819Y029700D01*
X034503Y029569D01*
X034261Y029327D01*
X034130Y029011D01*
X034130Y027889D01*
X034261Y027573D01*
X034503Y027331D01*
X034819Y027200D01*
X035161Y027200D01*
X035477Y027331D01*
X035719Y027573D01*
X035850Y027889D01*
X035850Y029011D01*
X035719Y029327D01*
X035850Y028551D02*
X036110Y028551D01*
X036125Y027853D02*
X035835Y027853D01*
X034145Y027853D02*
X033755Y027853D01*
X033770Y027889D02*
X033639Y027573D01*
X033397Y027331D01*
X033081Y027200D01*
X032739Y027200D01*
X032423Y027331D01*
X032181Y027573D01*
X032050Y027889D01*
X032050Y029011D01*
X032181Y029327D01*
X032423Y029569D01*
X032739Y029700D01*
X033081Y029700D01*
X033397Y029569D01*
X033639Y029327D01*
X033770Y029011D01*
X033770Y027889D01*
X033770Y028551D02*
X034130Y028551D01*
X034229Y029250D02*
X033671Y029250D01*
X032149Y029250D02*
X031691Y029250D01*
X031659Y029327D02*
X031417Y029569D01*
X031101Y029700D01*
X030759Y029700D01*
X030443Y029569D01*
X030201Y029327D01*
X030070Y029011D01*
X030070Y027889D01*
X030201Y027573D01*
X030443Y027331D01*
X030759Y027200D01*
X031101Y027200D01*
X031417Y027331D01*
X031659Y027573D01*
X031790Y027889D01*
X031790Y029011D01*
X031659Y029327D01*
X031790Y028551D02*
X032050Y028551D01*
X032065Y027853D02*
X031775Y027853D01*
X030085Y027853D02*
X029815Y027853D01*
X029830Y027889D02*
X029699Y027573D01*
X029457Y027331D01*
X029141Y027200D01*
X028799Y027200D01*
X028483Y027331D01*
X028241Y027573D01*
X028110Y027889D01*
X028110Y029011D01*
X028241Y029327D01*
X028483Y029569D01*
X028799Y029700D01*
X029141Y029700D01*
X029457Y029569D01*
X029699Y029327D01*
X029830Y029011D01*
X029830Y027889D01*
X029830Y028551D02*
X030070Y028551D01*
X030169Y029250D02*
X029731Y029250D01*
X028209Y029250D02*
X027751Y029250D01*
X027719Y029327D02*
X027477Y029569D01*
X027161Y029700D01*
X026819Y029700D01*
X026503Y029569D01*
X026261Y029327D01*
X026130Y029011D01*
X026130Y027889D01*
X026261Y027573D01*
X026503Y027331D01*
X026819Y027200D01*
X027161Y027200D01*
X027477Y027331D01*
X027719Y027573D01*
X027850Y027889D01*
X027850Y029011D01*
X027719Y029327D01*
X027850Y028551D02*
X028110Y028551D01*
X028125Y027853D02*
X027835Y027853D01*
X026145Y027853D02*
X025785Y027853D01*
X025800Y027889D02*
X025669Y027573D01*
X025427Y027331D01*
X025111Y027200D01*
X024769Y027200D01*
X024453Y027331D01*
X024211Y027573D01*
X024080Y027889D01*
X024080Y029011D01*
X024211Y029327D01*
X024453Y029569D01*
X024769Y029700D01*
X025111Y029700D01*
X025427Y029569D01*
X025669Y029327D01*
X025800Y029011D01*
X025800Y027889D01*
X025800Y028551D02*
X026130Y028551D01*
X026229Y029250D02*
X025701Y029250D01*
X024179Y029250D02*
X023721Y029250D01*
X023689Y029327D02*
X023447Y029569D01*
X023131Y029700D01*
X022789Y029700D01*
X022473Y029569D01*
X022231Y029327D01*
X022100Y029011D01*
X022100Y027889D01*
X022231Y027573D01*
X022473Y027331D01*
X022789Y027200D01*
X023131Y027200D01*
X023447Y027331D01*
X023689Y027573D01*
X023820Y027889D01*
X023820Y029011D01*
X023689Y029327D01*
X023820Y028551D02*
X024080Y028551D01*
X024095Y027853D02*
X023805Y027853D01*
X022115Y027853D02*
X021755Y027853D01*
X021770Y027889D02*
X021639Y027573D01*
X021397Y027331D01*
X021081Y027200D01*
X020739Y027200D01*
X020423Y027331D01*
X020181Y027573D01*
X020050Y027889D01*
X020050Y029011D01*
X020181Y029327D01*
X020423Y029569D01*
X020739Y029700D01*
X021081Y029700D01*
X021397Y029569D01*
X021639Y029327D01*
X021770Y029011D01*
X021770Y027889D01*
X021770Y028551D02*
X022100Y028551D01*
X022199Y029250D02*
X021671Y029250D01*
X020149Y029250D02*
X019691Y029250D01*
X019659Y029327D02*
X019417Y029569D01*
X019101Y029700D01*
X018759Y029700D01*
X018443Y029569D01*
X018201Y029327D01*
X018070Y029011D01*
X018070Y027889D01*
X018201Y027573D01*
X018443Y027331D01*
X018759Y027200D01*
X019101Y027200D01*
X019417Y027331D01*
X019659Y027573D01*
X019790Y027889D01*
X019790Y029011D01*
X019659Y029327D01*
X019790Y028551D02*
X020050Y028551D01*
X020065Y027853D02*
X019775Y027853D01*
X018085Y027853D02*
X017815Y027853D01*
X017830Y027889D02*
X017699Y027573D01*
X017457Y027331D01*
X017141Y027200D01*
X016799Y027200D01*
X016483Y027331D01*
X016241Y027573D01*
X016110Y027889D01*
X016110Y029011D01*
X016241Y029327D01*
X016483Y029569D01*
X016799Y029700D01*
X017141Y029700D01*
X017457Y029569D01*
X017699Y029327D01*
X017830Y029011D01*
X017830Y027889D01*
X017830Y028551D02*
X018070Y028551D01*
X018169Y029250D02*
X017731Y029250D01*
X016209Y029250D02*
X015751Y029250D01*
X015719Y029327D02*
X015477Y029569D01*
X015161Y029700D01*
X014819Y029700D01*
X014503Y029569D01*
X014261Y029327D01*
X014130Y029011D01*
X014130Y027889D01*
X014261Y027573D01*
X014503Y027331D01*
X014819Y027200D01*
X015161Y027200D01*
X015477Y027331D01*
X015719Y027573D01*
X015850Y027889D01*
X015850Y029011D01*
X015719Y029327D01*
X015850Y028551D02*
X016110Y028551D01*
X016125Y027853D02*
X015835Y027853D01*
X014145Y027853D02*
X013755Y027853D01*
X013770Y027889D02*
X013639Y027573D01*
X013397Y027331D01*
X013081Y027200D01*
X012739Y027200D01*
X012423Y027331D01*
X012181Y027573D01*
X012050Y027889D01*
X012050Y029011D01*
X012181Y029327D01*
X012423Y029569D01*
X012739Y029700D01*
X013081Y029700D01*
X013397Y029569D01*
X013639Y029327D01*
X013770Y029011D01*
X013770Y027889D01*
X013770Y028551D02*
X014130Y028551D01*
X014229Y029250D02*
X013671Y029250D01*
X012149Y029250D02*
X011691Y029250D01*
X011659Y029327D02*
X011417Y029569D01*
X011101Y029700D01*
X010759Y029700D01*
X010443Y029569D01*
X010201Y029327D01*
X010070Y029011D01*
X010070Y027889D01*
X010201Y027573D01*
X010443Y027331D01*
X010759Y027200D01*
X011101Y027200D01*
X011417Y027331D01*
X011659Y027573D01*
X011790Y027889D01*
X011790Y029011D01*
X011659Y029327D01*
X011790Y028551D02*
X012050Y028551D01*
X012065Y027853D02*
X011775Y027853D01*
X010085Y027853D02*
X009815Y027853D01*
X009830Y027889D02*
X009699Y027573D01*
X009457Y027331D01*
X009141Y027200D01*
X008799Y027200D01*
X008483Y027331D01*
X008241Y027573D01*
X008110Y027889D01*
X008110Y029011D01*
X008241Y029327D01*
X008483Y029569D01*
X008799Y029700D01*
X009141Y029700D01*
X009457Y029569D01*
X009699Y029327D01*
X009830Y029011D01*
X009830Y027889D01*
X009830Y028551D02*
X010070Y028551D01*
X010169Y029250D02*
X009731Y029250D01*
X008209Y029250D02*
X007751Y029250D01*
X007719Y029327D02*
X007477Y029569D01*
X007161Y029700D01*
X006819Y029700D01*
X006503Y029569D01*
X006261Y029327D01*
X006130Y029011D01*
X006130Y027889D01*
X006261Y027573D01*
X006503Y027331D01*
X006819Y027200D01*
X007161Y027200D01*
X007477Y027331D01*
X007719Y027573D01*
X007850Y027889D01*
X007850Y029011D01*
X007719Y029327D01*
X007850Y028551D02*
X008110Y028551D01*
X008125Y027853D02*
X007835Y027853D01*
X006145Y027853D02*
X005785Y027853D01*
X005800Y027889D02*
X005669Y027573D01*
X005427Y027331D01*
X005111Y027200D01*
X004769Y027200D01*
X004453Y027331D01*
X004211Y027573D01*
X004080Y027889D01*
X004080Y029011D01*
X004211Y029327D01*
X004453Y029569D01*
X004769Y029700D01*
X005111Y029700D01*
X005427Y029569D01*
X005669Y029327D01*
X005800Y029011D01*
X005800Y027889D01*
X005800Y028551D02*
X006130Y028551D01*
X006229Y029250D02*
X005701Y029250D01*
X004179Y029250D02*
X003721Y029250D01*
X003689Y029327D02*
X003447Y029569D01*
X003131Y029700D01*
X002789Y029700D01*
X002473Y029569D01*
X002231Y029327D01*
X002100Y029011D01*
X002100Y027889D01*
X002231Y027573D01*
X002473Y027331D01*
X002789Y027200D01*
X003131Y027200D01*
X003447Y027331D01*
X003689Y027573D01*
X003820Y027889D01*
X003820Y029011D01*
X003689Y029327D01*
X003820Y028551D02*
X004080Y028551D01*
X004095Y027853D02*
X003805Y027853D01*
X002115Y027853D02*
X001200Y027853D01*
X001200Y028551D02*
X002100Y028551D01*
X002199Y029250D02*
X001200Y029250D01*
X001200Y029948D02*
X061570Y029948D01*
X061397Y029569D02*
X061081Y029700D01*
X060739Y029700D01*
X060423Y029569D01*
X060181Y029327D01*
X060050Y029011D01*
X060050Y027889D01*
X060181Y027573D01*
X060423Y027331D01*
X060739Y027200D01*
X061081Y027200D01*
X061397Y027331D01*
X061639Y027573D01*
X061770Y027889D01*
X061770Y029011D01*
X061639Y029327D01*
X061397Y029569D01*
X061671Y029250D02*
X061761Y029250D01*
X061770Y028551D02*
X063192Y028551D01*
X063192Y027853D02*
X061755Y027853D01*
X060065Y027853D02*
X059775Y027853D01*
X059790Y028551D02*
X060050Y028551D01*
X060149Y029250D02*
X059691Y029250D01*
X063192Y027154D02*
X002124Y027154D01*
X002743Y026456D02*
X063192Y026456D01*
X063192Y025757D02*
X002827Y025757D01*
X040670Y014581D02*
X056730Y014581D01*
M02*
