%
M48
M72
T01C0.0320
T02C0.0360
T03C0.0400
T04C0.0440
T05C0.0520
T06C0.1260
%
T01
X58950Y8450
X61950Y6450
X62950Y6450
X62950Y8450
T02
X53450Y9450
X52450Y9450
X51450Y9450
X50450Y9450
X49450Y9450
X48450Y9450
X47450Y9450
X46450Y9450
X45450Y9450
X44450Y9450
X44450Y10450
X45450Y10450
X46450Y10450
X47450Y10450
X48450Y10450
X49450Y10450
X50450Y10450
X51450Y10450
X52450Y10450
X53450Y10450
X34450Y10450
X33450Y10450
X32450Y10450
X31450Y10450
X30450Y10450
X29450Y10450
X28450Y10450
X27450Y10450
X26450Y10450
X25450Y10450
X25450Y9450
X26450Y9450
X27450Y9450
X28450Y9450
X29450Y9450
X30450Y9450
X31450Y9450
X32450Y9450
X33450Y9450
X34450Y9450
X15450Y9450
X14450Y9450
X13450Y9450
X12450Y9450
X11450Y9450
X10450Y9450
X9450Y9450
X8450Y9450
X7450Y9450
X6450Y9450
X6450Y10450
X7450Y10450
X8450Y10450
X9450Y10450
X10450Y10450
X11450Y10450
X12450Y10450
X13450Y10450
X14450Y10450
X15450Y10450
X15450Y21450
X14450Y21450
X13450Y21450
X12450Y21450
X11450Y21450
X10450Y21450
X9450Y21450
X8450Y21450
X7450Y21450
X6450Y21450
X6450Y22450
X7450Y22450
X8450Y22450
X9450Y22450
X10450Y22450
X11450Y22450
X12450Y22450
X13450Y22450
X14450Y22450
X15450Y22450
X25450Y22450
X26450Y22450
X27450Y22450
X28450Y22450
X29450Y22450
X30450Y22450
X31450Y22450
X32450Y22450
X33450Y22450
X34450Y22450
X34450Y21450
X33450Y21450
X32450Y21450
X31450Y21450
X30450Y21450
X29450Y21450
X28450Y21450
X27450Y21450
X26450Y21450
X25450Y21450
X44450Y21450
X45450Y21450
X46450Y21450
X47450Y21450
X48450Y21450
X49450Y21450
X50450Y21450
X51450Y21450
X52450Y21450
X53450Y21450
X53450Y22450
X52450Y22450
X51450Y22450
X50450Y22450
X49450Y22450
X48450Y22450
X47450Y22450
X46450Y22450
X45450Y22450
X44450Y22450
T03
X39950Y17950
X38950Y17950
X38950Y16950
X39950Y16950
X39950Y15950
X38950Y15950
X38950Y14950
X39950Y14950
X40450Y8442
X40450Y7458
X57450Y14950
X58450Y14950
X58450Y15950
X57450Y15950
X57450Y16950
X58450Y16950
X58450Y17950
X57450Y17950
X62450Y17926
X62450Y16942
X62450Y15958
X62450Y14974
X62450Y20981
X62450Y21966
X62450Y22950
X62450Y23934
X62450Y24919
X21450Y8442
X21450Y7458
X20450Y14950
X19450Y14950
X19450Y15950
X20450Y15950
X20450Y16950
X19450Y16950
X19450Y17950
X20450Y17950
X2950Y8442
X2950Y7458
T04
X55950Y10950
X59950Y10950
T05
X62450Y10460
X62450Y12440
X60910Y3950
X58930Y3950
X56970Y3950
X54990Y3950
X52910Y3950
X50930Y3950
X48970Y3950
X46990Y3950
X44940Y3950
X42960Y3950
X40910Y3950
X38930Y3950
X36970Y3950
X34990Y3950
X32910Y3950
X30930Y3950
X28970Y3950
X26990Y3950
X24940Y3950
X22960Y3950
X20910Y3950
X18930Y3950
X16970Y3950
X14990Y3950
X12910Y3950
X10930Y3950
X8970Y3950
X6990Y3950
X4940Y3950
X2960Y3950
X2960Y28450
X4940Y28450
X6990Y28450
X8970Y28450
X10930Y28450
X12910Y28450
X14990Y28450
X16970Y28450
X18930Y28450
X20910Y28450
X22960Y28450
X24940Y28450
X26990Y28450
X28970Y28450
X30930Y28450
X32910Y28450
X34990Y28450
X36970Y28450
X38930Y28450
X40910Y28450
X42960Y28450
X44940Y28450
X46990Y28450
X48970Y28450
X50930Y28450
X52910Y28450
X54990Y28450
X56970Y28450
X58930Y28450
X60910Y28450
T06
X1450Y1450
X17450Y9450
X36450Y9450
X55450Y9450
X62950Y1450
X42450Y21950
X23450Y21950
X4450Y21950
X1450Y25950
X62950Y29950
M30
