G75*
%MOIN*%
%OFA0B0*%
%FSLAX24Y24*%
%IPPOS*%
%LPD*%
%AMOC8*
5,1,8,0,0,1.08239X$1,22.5*
%
%ADD10C,0.0600*%
%ADD11OC8,0.0560*%
%ADD12C,0.0780*%
%ADD13C,0.0660*%
%ADD14OC8,0.0520*%
%ADD15OC8,0.0600*%
%ADD16C,0.0240*%
%ADD17C,0.0120*%
%ADD18C,0.0700*%
D10*
X002650Y007458D02*
X003250Y007458D01*
X003250Y008442D02*
X002650Y008442D01*
X021150Y008442D02*
X021750Y008442D01*
X021750Y007458D02*
X021150Y007458D01*
X040150Y007458D02*
X040750Y007458D01*
X040750Y008442D02*
X040150Y008442D01*
X062150Y014974D02*
X062750Y014974D01*
X062750Y015958D02*
X062150Y015958D01*
X062150Y016942D02*
X062750Y016942D01*
X062750Y017926D02*
X062150Y017926D01*
X062150Y020981D02*
X062750Y020981D01*
X062750Y021966D02*
X062150Y021966D01*
X062150Y022950D02*
X062750Y022950D01*
X062750Y023934D02*
X062150Y023934D01*
X062150Y024919D02*
X062750Y024919D01*
D11*
X053450Y022450D03*
X052450Y022450D03*
X051450Y022450D03*
X050450Y022450D03*
X049450Y022450D03*
X048450Y022450D03*
X047450Y022450D03*
X046450Y022450D03*
X045450Y022450D03*
X044450Y022450D03*
X044450Y021450D03*
X045450Y021450D03*
X046450Y021450D03*
X047450Y021450D03*
X048450Y021450D03*
X049450Y021450D03*
X050450Y021450D03*
X051450Y021450D03*
X052450Y021450D03*
X053450Y021450D03*
X034450Y021450D03*
X033450Y021450D03*
X032450Y021450D03*
X031450Y021450D03*
X030450Y021450D03*
X029450Y021450D03*
X028450Y021450D03*
X027450Y021450D03*
X026450Y021450D03*
X025450Y021450D03*
X025450Y022450D03*
X026450Y022450D03*
X027450Y022450D03*
X028450Y022450D03*
X029450Y022450D03*
X030450Y022450D03*
X031450Y022450D03*
X032450Y022450D03*
X033450Y022450D03*
X034450Y022450D03*
X015450Y022450D03*
X014450Y022450D03*
X013450Y022450D03*
X012450Y022450D03*
X011450Y022450D03*
X010450Y022450D03*
X009450Y022450D03*
X008450Y022450D03*
X007450Y022450D03*
X006450Y022450D03*
X006450Y021450D03*
X007450Y021450D03*
X008450Y021450D03*
X009450Y021450D03*
X010450Y021450D03*
X011450Y021450D03*
X012450Y021450D03*
X013450Y021450D03*
X014450Y021450D03*
X015450Y021450D03*
X015450Y010450D03*
X014450Y010450D03*
X013450Y010450D03*
X012450Y010450D03*
X011450Y010450D03*
X010450Y010450D03*
X009450Y010450D03*
X008450Y010450D03*
X007450Y010450D03*
X006450Y010450D03*
X006450Y009450D03*
X007450Y009450D03*
X008450Y009450D03*
X009450Y009450D03*
X010450Y009450D03*
X011450Y009450D03*
X012450Y009450D03*
X013450Y009450D03*
X014450Y009450D03*
X015450Y009450D03*
X025450Y009450D03*
X026450Y009450D03*
X027450Y009450D03*
X028450Y009450D03*
X029450Y009450D03*
X030450Y009450D03*
X031450Y009450D03*
X032450Y009450D03*
X033450Y009450D03*
X034450Y009450D03*
X034450Y010450D03*
X033450Y010450D03*
X032450Y010450D03*
X031450Y010450D03*
X030450Y010450D03*
X029450Y010450D03*
X028450Y010450D03*
X027450Y010450D03*
X026450Y010450D03*
X025450Y010450D03*
X044450Y010450D03*
X045450Y010450D03*
X046450Y010450D03*
X047450Y010450D03*
X048450Y010450D03*
X049450Y010450D03*
X050450Y010450D03*
X051450Y010450D03*
X052450Y010450D03*
X053450Y010450D03*
X053450Y009450D03*
X052450Y009450D03*
X051450Y009450D03*
X050450Y009450D03*
X049450Y009450D03*
X048450Y009450D03*
X047450Y009450D03*
X046450Y009450D03*
X045450Y009450D03*
X044450Y009450D03*
D12*
X044940Y004340D02*
X044940Y003560D01*
X042960Y003560D02*
X042960Y004340D01*
X040910Y004340D02*
X040910Y003560D01*
X038930Y003560D02*
X038930Y004340D01*
X036970Y004340D02*
X036970Y003560D01*
X034990Y003560D02*
X034990Y004340D01*
X032910Y004340D02*
X032910Y003560D01*
X030930Y003560D02*
X030930Y004340D01*
X028970Y004340D02*
X028970Y003560D01*
X026990Y003560D02*
X026990Y004340D01*
X024940Y004340D02*
X024940Y003560D01*
X022960Y003560D02*
X022960Y004340D01*
X020910Y004340D02*
X020910Y003560D01*
X018930Y003560D02*
X018930Y004340D01*
X016970Y004340D02*
X016970Y003560D01*
X014990Y003560D02*
X014990Y004340D01*
X012910Y004340D02*
X012910Y003560D01*
X010930Y003560D02*
X010930Y004340D01*
X008970Y004340D02*
X008970Y003560D01*
X006990Y003560D02*
X006990Y004340D01*
X004940Y004340D02*
X004940Y003560D01*
X002960Y003560D02*
X002960Y004340D01*
X046990Y004340D02*
X046990Y003560D01*
X048970Y003560D02*
X048970Y004340D01*
X050930Y004340D02*
X050930Y003560D01*
X052910Y003560D02*
X052910Y004340D01*
X054990Y004340D02*
X054990Y003560D01*
X056970Y003560D02*
X056970Y004340D01*
X058930Y004340D02*
X058930Y003560D01*
X060910Y003560D02*
X060910Y004340D01*
X062060Y010460D02*
X062840Y010460D01*
X062840Y012440D02*
X062060Y012440D01*
X060910Y028060D02*
X060910Y028840D01*
X058930Y028840D02*
X058930Y028060D01*
X056970Y028060D02*
X056970Y028840D01*
X054990Y028840D02*
X054990Y028060D01*
X052910Y028060D02*
X052910Y028840D01*
X050930Y028840D02*
X050930Y028060D01*
X048970Y028060D02*
X048970Y028840D01*
X046990Y028840D02*
X046990Y028060D01*
X044940Y028060D02*
X044940Y028840D01*
X042960Y028840D02*
X042960Y028060D01*
X040910Y028060D02*
X040910Y028840D01*
X038930Y028840D02*
X038930Y028060D01*
X036970Y028060D02*
X036970Y028840D01*
X034990Y028840D02*
X034990Y028060D01*
X032910Y028060D02*
X032910Y028840D01*
X030930Y028840D02*
X030930Y028060D01*
X028970Y028060D02*
X028970Y028840D01*
X026990Y028840D02*
X026990Y028060D01*
X024940Y028060D02*
X024940Y028840D01*
X022960Y028840D02*
X022960Y028060D01*
X020910Y028060D02*
X020910Y028840D01*
X018930Y028840D02*
X018930Y028060D01*
X016970Y028060D02*
X016970Y028840D01*
X014990Y028840D02*
X014990Y028060D01*
X012910Y028060D02*
X012910Y028840D01*
X010930Y028840D02*
X010930Y028060D01*
X008970Y028060D02*
X008970Y028840D01*
X006990Y028840D02*
X006990Y028060D01*
X004940Y028060D02*
X004940Y028840D01*
X002960Y028840D02*
X002960Y028060D01*
D13*
X055950Y010950D03*
X059950Y010950D03*
D14*
X058950Y008450D03*
X061950Y006450D03*
X062950Y006450D03*
X062950Y008450D03*
D15*
X058450Y014950D03*
X057450Y014950D03*
X057450Y015950D03*
X058450Y015950D03*
X058450Y016950D03*
X057450Y016950D03*
X057450Y017950D03*
X058450Y017950D03*
X039950Y017950D03*
X038950Y017950D03*
X038950Y016950D03*
X039950Y016950D03*
X039950Y015950D03*
X038950Y015950D03*
X038950Y014950D03*
X039950Y014950D03*
X020450Y014950D03*
X019450Y014950D03*
X019450Y015950D03*
X020450Y015950D03*
X020450Y016950D03*
X019450Y016950D03*
X019450Y017950D03*
X020450Y017950D03*
D16*
X021950Y012950D02*
X021450Y012450D01*
X014950Y012450D01*
X014450Y011950D01*
X014450Y010450D01*
X011450Y010450D02*
X011450Y009450D01*
X011450Y008950D01*
X012200Y008200D01*
X020200Y008200D01*
X020450Y007950D01*
X020950Y008450D01*
X021942Y008450D01*
X021450Y008442D01*
X021450Y009450D01*
X021950Y009950D01*
X021950Y012950D01*
X021950Y025450D01*
X022960Y026460D01*
X022960Y028450D01*
X040950Y025450D02*
X040950Y014450D01*
X039950Y013450D01*
X039450Y012950D01*
X033950Y012950D01*
X033450Y012450D01*
X033450Y010450D01*
X030450Y010450D02*
X030450Y009450D01*
X030450Y008950D01*
X031200Y008200D01*
X038208Y008200D01*
X038450Y008442D01*
X038950Y008442D01*
X038950Y007450D01*
X040450Y005950D01*
X041450Y005950D01*
X042960Y004440D01*
X042960Y003950D01*
X049450Y008950D02*
X050450Y007950D01*
X053950Y007950D01*
X054200Y008200D01*
X054200Y011700D01*
X054950Y012450D01*
X052950Y012450D01*
X052450Y011950D01*
X052450Y010450D01*
X049450Y010450D02*
X049450Y009450D01*
X049450Y008950D01*
X048950Y008450D01*
X044950Y008450D01*
X044450Y008950D01*
X044450Y009450D01*
X040450Y008442D02*
X039950Y008942D01*
X039950Y013450D01*
X030450Y008950D02*
X029950Y008450D01*
X025950Y008450D01*
X025450Y008950D01*
X025450Y009450D01*
X020450Y007950D02*
X020450Y006450D01*
X022950Y003950D01*
X022960Y003950D01*
X011450Y008950D02*
X010950Y008450D01*
X006950Y008450D01*
X006450Y008950D01*
X006450Y009450D01*
X002960Y008452D02*
X002950Y008442D01*
X002942Y008450D01*
X001950Y008450D01*
X001450Y007950D01*
X001450Y004450D01*
X001950Y003950D01*
X002960Y003950D01*
X002960Y008452D02*
X002960Y028450D01*
X040950Y025450D02*
X042960Y027460D01*
X042960Y028450D01*
X060950Y022450D02*
X061450Y022950D01*
X062450Y022950D01*
X060950Y022450D02*
X060950Y018450D01*
X061474Y017926D01*
X062450Y017926D01*
X062426Y017950D01*
X061450Y017950D01*
X060950Y017450D01*
X060950Y012950D01*
X061450Y012450D01*
X062440Y012450D01*
X062450Y012440D01*
X061450Y012450D02*
X058450Y012450D01*
X054950Y012450D01*
X055950Y010950D02*
X058450Y008450D01*
X058950Y008450D01*
X058950Y009950D02*
X058950Y011950D01*
X058450Y012450D01*
X059950Y010950D02*
X060440Y010460D01*
X062450Y010460D01*
X062950Y008450D02*
X062950Y006450D01*
X061950Y006450D02*
X061950Y006950D01*
X058950Y009950D01*
X040450Y008442D02*
X038950Y008442D01*
D17*
X038200Y007200D02*
X025700Y007200D01*
X024450Y008450D01*
X024450Y016950D01*
X025450Y017950D01*
X031950Y017950D01*
X034450Y020450D01*
X034450Y021450D01*
X033450Y021450D02*
X033450Y020450D01*
X031200Y018200D01*
X025200Y018200D01*
X024200Y017200D01*
X024200Y008200D01*
X025450Y006950D01*
X036450Y006950D01*
X038950Y004450D01*
X038950Y003970D01*
X038930Y003950D01*
X036970Y003950D02*
X036970Y004430D01*
X034700Y006700D01*
X025200Y006700D01*
X023950Y007950D01*
X023950Y017450D01*
X024950Y018450D01*
X030450Y018450D01*
X032450Y020450D01*
X032450Y021450D01*
X031450Y021450D02*
X031450Y020450D01*
X029700Y018700D01*
X024700Y018700D01*
X023700Y017700D01*
X023700Y007700D01*
X024950Y006450D01*
X032950Y006450D01*
X034950Y004450D01*
X034950Y003990D01*
X034990Y003950D01*
X032910Y003950D02*
X032910Y004490D01*
X031200Y006200D01*
X024700Y006200D01*
X023450Y007450D01*
X023450Y017950D01*
X024450Y018950D01*
X028950Y018950D01*
X030450Y020450D01*
X030450Y021450D01*
X029450Y021450D02*
X029450Y020450D01*
X028200Y019200D01*
X024200Y019200D01*
X023200Y018200D01*
X023200Y007200D01*
X024450Y005950D01*
X029950Y005950D01*
X030930Y004970D01*
X030930Y003950D01*
X028970Y003950D02*
X028950Y003970D01*
X028950Y005200D01*
X028450Y005700D01*
X024200Y005700D01*
X022950Y006950D01*
X022950Y018450D01*
X023950Y019450D01*
X027450Y019450D01*
X028450Y020450D01*
X028450Y021450D01*
X027450Y021450D02*
X027450Y020450D01*
X026700Y019700D01*
X023700Y019700D01*
X022700Y018700D01*
X022700Y006700D01*
X023950Y005450D01*
X025950Y005450D01*
X026990Y004410D01*
X026990Y003950D01*
X024940Y003950D02*
X024940Y003960D01*
X022450Y006450D01*
X022450Y018950D01*
X023450Y019950D01*
X025950Y019950D01*
X026450Y020450D01*
X026450Y021450D01*
X026450Y022450D02*
X026450Y025450D01*
X024950Y026950D01*
X024950Y028440D01*
X024940Y028450D01*
X026950Y028410D02*
X026990Y028450D01*
X026950Y028410D02*
X026950Y026950D01*
X027450Y026450D01*
X027450Y022450D01*
X028450Y022450D02*
X028450Y026450D01*
X028950Y026950D01*
X028950Y028430D01*
X028970Y028450D01*
X030930Y028450D02*
X030950Y028430D01*
X030950Y026950D01*
X029450Y025450D01*
X029450Y022450D01*
X030450Y022450D02*
X030450Y024450D01*
X032950Y026950D01*
X032950Y028410D01*
X032910Y028450D01*
X034950Y028410D02*
X034990Y028450D01*
X034950Y028410D02*
X034950Y026950D01*
X031450Y023450D01*
X031450Y022450D01*
X032450Y022450D02*
X032450Y023450D01*
X036950Y027950D01*
X036950Y028430D01*
X036970Y028450D01*
X038930Y028450D02*
X038950Y028430D01*
X038950Y026950D01*
X037950Y025950D01*
X035950Y025950D01*
X033450Y023450D01*
X033450Y022450D01*
X034450Y022450D02*
X034450Y023450D01*
X035950Y024950D01*
X037950Y024950D01*
X040950Y027950D01*
X040950Y028410D01*
X040910Y028450D01*
X044940Y028450D02*
X044950Y028440D01*
X044950Y025450D01*
X045450Y024950D01*
X045450Y022450D01*
X046450Y022450D02*
X046450Y025950D01*
X046950Y026450D01*
X046950Y028410D01*
X046990Y028450D01*
X048950Y028430D02*
X048970Y028450D01*
X048950Y028430D02*
X048950Y026950D01*
X047450Y025450D01*
X047450Y022450D01*
X048450Y022450D02*
X048450Y024950D01*
X050950Y027450D01*
X050950Y028430D01*
X050930Y028450D01*
X052910Y028450D02*
X052950Y028410D01*
X052950Y027950D01*
X049450Y024450D01*
X049450Y022450D01*
X050450Y022450D02*
X050450Y024450D01*
X052950Y026950D01*
X054450Y026950D01*
X054950Y027450D01*
X054950Y028410D01*
X054990Y028450D01*
X056950Y028430D02*
X056970Y028450D01*
X056950Y028430D02*
X056950Y026950D01*
X055950Y025950D01*
X052950Y025950D01*
X051450Y024450D01*
X051450Y022450D01*
X052450Y022450D02*
X052450Y024450D01*
X053450Y025450D01*
X056950Y025450D01*
X058950Y027450D01*
X058950Y028430D01*
X058930Y028450D01*
X060910Y028450D02*
X060950Y028410D01*
X060950Y027450D01*
X058450Y024950D01*
X053950Y024950D01*
X053450Y024450D01*
X053450Y022450D01*
X053450Y021450D02*
X053450Y020950D01*
X050450Y017950D01*
X043950Y017950D01*
X043450Y017450D01*
X043450Y008950D01*
X044950Y007450D01*
X057700Y007450D01*
X060950Y004200D01*
X060950Y003990D01*
X060910Y003950D01*
X058950Y003970D02*
X058930Y003950D01*
X058950Y003970D02*
X058950Y005450D01*
X057200Y007200D01*
X044700Y007200D01*
X043200Y008700D01*
X043200Y017700D01*
X043700Y018200D01*
X049700Y018200D01*
X052450Y020950D01*
X052450Y021450D01*
X051450Y021450D02*
X051450Y020950D01*
X048950Y018450D01*
X043450Y018450D01*
X042950Y017950D01*
X042950Y008450D01*
X044450Y006950D01*
X055200Y006950D01*
X056950Y005200D01*
X056950Y003970D01*
X056970Y003950D01*
X054990Y003950D02*
X054950Y003990D01*
X054950Y005200D01*
X053450Y006700D01*
X044200Y006700D01*
X042700Y008200D01*
X042700Y018200D01*
X043200Y018700D01*
X048200Y018700D01*
X050450Y020950D01*
X050450Y021450D01*
X049450Y021450D02*
X049450Y020950D01*
X047450Y018950D01*
X042950Y018950D01*
X042450Y018450D01*
X042450Y007950D01*
X043950Y006450D01*
X051700Y006450D01*
X052950Y005200D01*
X052950Y003990D01*
X052910Y003950D01*
X050950Y003970D02*
X050930Y003950D01*
X050950Y003970D02*
X050950Y005200D01*
X049950Y006200D01*
X043700Y006200D01*
X042200Y007700D01*
X042200Y018700D01*
X042700Y019200D01*
X046700Y019200D01*
X048450Y020950D01*
X048450Y021450D01*
X047450Y021450D02*
X047450Y020950D01*
X045950Y019450D01*
X042450Y019450D01*
X041950Y018950D01*
X041950Y007450D01*
X043450Y005950D01*
X048200Y005950D01*
X048950Y005200D01*
X048950Y003970D01*
X048970Y003950D01*
X046990Y003950D02*
X046950Y003990D01*
X046950Y005200D01*
X046450Y005700D01*
X043200Y005700D01*
X041700Y007200D01*
X041700Y019200D01*
X042200Y019700D01*
X045200Y019700D01*
X046450Y020950D01*
X046450Y021450D01*
X045450Y021450D02*
X045450Y020950D01*
X044450Y019950D01*
X041950Y019950D01*
X041450Y019450D01*
X041450Y006950D01*
X042950Y005450D01*
X044450Y005450D01*
X044950Y004950D01*
X044950Y003960D01*
X044940Y003950D01*
X040910Y003950D02*
X040910Y004490D01*
X038200Y007200D01*
X032450Y009450D02*
X031950Y009950D01*
X031950Y014950D01*
X032450Y015450D01*
X039450Y015450D01*
X039950Y014950D01*
X039950Y015950D02*
X039450Y016450D01*
X031450Y016450D01*
X030950Y015950D01*
X030950Y009950D01*
X031450Y009450D01*
X029450Y009450D02*
X028950Y009950D01*
X028950Y016450D01*
X029450Y016950D01*
X032950Y016950D01*
X033450Y017450D01*
X039450Y017450D01*
X039950Y016950D01*
X039950Y017950D02*
X038950Y018950D01*
X033950Y018950D01*
X032450Y017450D01*
X028450Y017450D01*
X027950Y016950D01*
X027950Y009950D01*
X028450Y009450D01*
X020910Y003990D02*
X017200Y007700D01*
X006450Y007700D01*
X005950Y008200D01*
X005950Y017950D01*
X006450Y018450D01*
X012450Y018450D01*
X015450Y021450D01*
X014450Y021450D02*
X011700Y018700D01*
X006200Y018700D01*
X005700Y018200D01*
X005700Y007950D01*
X006200Y007450D01*
X015450Y007450D01*
X018930Y003970D01*
X018930Y003950D01*
X016970Y003950D02*
X016970Y004430D01*
X014200Y007200D01*
X005950Y007200D01*
X005450Y007700D01*
X005450Y018450D01*
X005950Y018950D01*
X010950Y018950D01*
X013450Y021450D01*
X012450Y021450D02*
X010200Y019200D01*
X005700Y019200D01*
X005200Y018700D01*
X005200Y007200D01*
X005450Y006950D01*
X011950Y006950D01*
X014950Y003950D01*
X014990Y003950D01*
X012910Y003950D02*
X012910Y003990D01*
X010450Y006450D01*
X005450Y006450D01*
X004950Y006950D01*
X004950Y018950D01*
X005450Y019450D01*
X009450Y019450D01*
X011450Y021450D01*
X010450Y021450D02*
X008700Y019700D01*
X005200Y019700D01*
X004700Y019200D01*
X004700Y006700D01*
X005450Y005950D01*
X009450Y005950D01*
X010930Y004470D01*
X010930Y003950D01*
X008970Y003950D02*
X008970Y004430D01*
X007950Y005450D01*
X005450Y005450D01*
X004450Y006450D01*
X004450Y019450D01*
X004950Y019950D01*
X007950Y019950D01*
X009450Y021450D01*
X008450Y021450D02*
X007200Y020200D01*
X004700Y020200D01*
X004200Y019700D01*
X004200Y006200D01*
X005450Y004950D01*
X006450Y004950D01*
X006950Y004450D01*
X006950Y003990D01*
X006990Y003950D01*
X006950Y003950D01*
X004940Y003950D02*
X004940Y004960D01*
X003950Y005950D01*
X003950Y019950D01*
X004450Y020450D01*
X006450Y020450D01*
X007450Y021450D01*
X007450Y022450D02*
X007450Y024450D01*
X004950Y026950D01*
X004950Y028440D01*
X004940Y028450D01*
X006950Y028410D02*
X006990Y028450D01*
X006950Y028410D02*
X006950Y026950D01*
X008450Y025450D01*
X008450Y022450D01*
X009450Y022450D02*
X009450Y026450D01*
X008950Y026950D01*
X008950Y028430D01*
X008970Y028450D01*
X010930Y028450D02*
X010950Y028430D01*
X010950Y026950D01*
X010450Y026450D01*
X010450Y022450D01*
X011450Y022450D02*
X011450Y025450D01*
X012950Y026950D01*
X012950Y028410D01*
X012910Y028450D01*
X014950Y028410D02*
X014990Y028450D01*
X014950Y028410D02*
X014950Y026950D01*
X012450Y024450D01*
X012450Y022450D01*
X013450Y022450D02*
X013450Y023450D01*
X016950Y026950D01*
X016950Y028450D01*
X016970Y028450D01*
X018930Y028450D02*
X018950Y028430D01*
X018950Y026950D01*
X014450Y022450D01*
X015450Y022450D02*
X016450Y022450D01*
X020950Y026950D01*
X020950Y028410D01*
X020910Y028450D01*
X019450Y018950D02*
X013950Y018950D01*
X012950Y017950D01*
X009450Y017950D01*
X008950Y017450D01*
X008950Y009950D01*
X009450Y009450D01*
X009950Y009950D02*
X010450Y009450D01*
X009950Y009950D02*
X009950Y016950D01*
X010450Y017450D01*
X019950Y017450D01*
X020450Y016950D01*
X019950Y016450D02*
X012450Y016450D01*
X011950Y015950D01*
X011950Y009950D01*
X012450Y009450D01*
X012950Y009950D02*
X013450Y009450D01*
X012950Y009950D02*
X012950Y014950D01*
X013450Y015450D01*
X019950Y015450D01*
X020450Y014950D01*
X020450Y015950D02*
X019950Y016450D01*
X020450Y017950D02*
X019450Y018950D01*
X044940Y028440D02*
X044940Y028450D01*
X052450Y018950D02*
X057450Y018950D01*
X058450Y017950D01*
X057950Y017450D02*
X058450Y016950D01*
X057950Y017450D02*
X051950Y017450D01*
X051450Y016950D01*
X048450Y016950D01*
X047950Y016450D01*
X047950Y009950D01*
X048450Y009450D01*
X047450Y009450D02*
X046950Y009950D01*
X046950Y016950D01*
X047450Y017450D01*
X050950Y017450D01*
X052450Y018950D01*
X050450Y016450D02*
X057950Y016450D01*
X058450Y015950D01*
X057950Y015450D02*
X058450Y014950D01*
X057950Y015450D02*
X051450Y015450D01*
X050950Y014950D01*
X050950Y009950D01*
X051450Y009450D01*
X050450Y009450D02*
X049950Y009950D01*
X049950Y015950D01*
X050450Y016450D01*
X020910Y003990D02*
X020910Y003950D01*
D18*
X002830Y001268D02*
X002812Y001200D01*
X061588Y001200D01*
X061570Y001268D01*
X061570Y001632D01*
X061664Y001983D01*
X061846Y002297D01*
X062103Y002554D01*
X062417Y002736D01*
X062768Y002830D01*
X063132Y002830D01*
X063192Y002814D01*
X063192Y005720D01*
X062648Y005720D01*
X062450Y005918D01*
X062252Y005720D01*
X061648Y005720D01*
X061220Y006148D01*
X061220Y006752D01*
X061267Y006799D01*
X059680Y008386D01*
X059680Y008148D01*
X059252Y007720D01*
X058648Y007720D01*
X058508Y007860D01*
X058333Y007860D01*
X058116Y007950D01*
X056823Y009243D01*
X056736Y008917D01*
X056554Y008603D01*
X056297Y008346D01*
X055983Y008164D01*
X055632Y008070D01*
X055268Y008070D01*
X054917Y008164D01*
X054790Y008238D01*
X054790Y008083D01*
X054747Y007980D01*
X057805Y007980D01*
X058000Y007899D01*
X060711Y005188D01*
X060739Y005200D01*
X061081Y005200D01*
X061397Y005069D01*
X061639Y004827D01*
X061770Y004511D01*
X061770Y003389D01*
X061639Y003073D01*
X061397Y002831D01*
X061081Y002700D01*
X060739Y002700D01*
X060423Y002831D01*
X060181Y003073D01*
X060050Y003389D01*
X060050Y004350D01*
X059720Y004681D01*
X059790Y004511D01*
X059790Y003389D01*
X059659Y003073D01*
X059417Y002831D01*
X059101Y002700D01*
X058759Y002700D01*
X058443Y002831D01*
X058201Y003073D01*
X058070Y003389D01*
X058070Y004511D01*
X058201Y004827D01*
X058420Y005046D01*
X058420Y005230D01*
X056980Y006670D01*
X056230Y006670D01*
X057250Y005649D01*
X057399Y005500D01*
X057480Y005305D01*
X057480Y005046D01*
X057699Y004827D01*
X057830Y004511D01*
X057830Y003389D01*
X057699Y003073D01*
X057457Y002831D01*
X057141Y002700D01*
X056799Y002700D01*
X056483Y002831D01*
X056241Y003073D01*
X056110Y003389D01*
X056110Y004511D01*
X056241Y004827D01*
X056407Y004993D01*
X054980Y006420D01*
X054480Y006420D01*
X055250Y005649D01*
X055250Y005649D01*
X055399Y005500D01*
X055480Y005305D01*
X055480Y005066D01*
X055719Y004827D01*
X055850Y004511D01*
X055850Y003389D01*
X055719Y003073D01*
X055477Y002831D01*
X055161Y002700D01*
X054819Y002700D01*
X054503Y002831D01*
X054261Y003073D01*
X054130Y003389D01*
X054130Y004511D01*
X054261Y004827D01*
X054417Y004983D01*
X053230Y006170D01*
X052730Y006170D01*
X053250Y005649D01*
X053399Y005500D01*
X053480Y005305D01*
X053480Y004986D01*
X053639Y004827D01*
X053770Y004511D01*
X053770Y003389D01*
X053639Y003073D01*
X053397Y002831D01*
X053081Y002700D01*
X052739Y002700D01*
X052423Y002831D01*
X052181Y003073D01*
X052050Y003389D01*
X052050Y004511D01*
X052181Y004827D01*
X052377Y005023D01*
X051480Y005920D01*
X050980Y005920D01*
X051399Y005500D01*
X051480Y005305D01*
X051480Y005006D01*
X051659Y004827D01*
X051790Y004511D01*
X051790Y003389D01*
X051659Y003073D01*
X051417Y002831D01*
X051101Y002700D01*
X050759Y002700D01*
X050443Y002831D01*
X050201Y003073D01*
X050070Y003389D01*
X050070Y004511D01*
X050201Y004827D01*
X050387Y005013D01*
X049730Y005670D01*
X049230Y005670D01*
X049399Y005500D01*
X049480Y005305D01*
X049480Y005046D01*
X049699Y004827D01*
X049830Y004511D01*
X049830Y003389D01*
X049699Y003073D01*
X049457Y002831D01*
X049141Y002700D01*
X048799Y002700D01*
X048483Y002831D01*
X048241Y003073D01*
X048110Y003389D01*
X048110Y004511D01*
X048241Y004827D01*
X048407Y004993D01*
X047980Y005420D01*
X047433Y005420D01*
X047480Y005305D01*
X047480Y005066D01*
X047719Y004827D01*
X047850Y004511D01*
X047850Y003389D01*
X047719Y003073D01*
X047477Y002831D01*
X047161Y002700D01*
X046819Y002700D01*
X046503Y002831D01*
X046261Y003073D01*
X046130Y003389D01*
X046130Y004511D01*
X046261Y004827D01*
X046417Y004983D01*
X046230Y005170D01*
X045433Y005170D01*
X045480Y005055D01*
X045480Y005016D01*
X045669Y004827D01*
X045800Y004511D01*
X045800Y003389D01*
X045669Y003073D01*
X045427Y002831D01*
X045111Y002700D01*
X044769Y002700D01*
X044453Y002831D01*
X044211Y003073D01*
X044080Y003389D01*
X044080Y004511D01*
X044211Y004827D01*
X044267Y004883D01*
X044230Y004920D01*
X043596Y004920D01*
X043689Y004827D01*
X043820Y004511D01*
X043820Y003389D01*
X043689Y003073D01*
X043447Y002831D01*
X043131Y002700D01*
X042789Y002700D01*
X042473Y002831D01*
X042231Y003073D01*
X042100Y003389D01*
X042100Y004466D01*
X041206Y005360D01*
X040790Y005360D01*
X040950Y005200D01*
X041081Y005200D01*
X041397Y005069D01*
X041639Y004827D01*
X041770Y004511D01*
X041770Y003389D01*
X041639Y003073D01*
X041397Y002831D01*
X041081Y002700D01*
X040739Y002700D01*
X040423Y002831D01*
X040181Y003073D01*
X040050Y003389D01*
X040050Y004511D01*
X040076Y004574D01*
X037980Y006670D01*
X037480Y006670D01*
X038950Y005200D01*
X039101Y005200D01*
X039417Y005069D01*
X039659Y004827D01*
X039790Y004511D01*
X039790Y003389D01*
X039659Y003073D01*
X039417Y002831D01*
X039101Y002700D01*
X038759Y002700D01*
X038443Y002831D01*
X038201Y003073D01*
X038070Y003389D01*
X038070Y004511D01*
X038090Y004560D01*
X036230Y006420D01*
X035730Y006420D01*
X036950Y005200D01*
X037141Y005200D01*
X037457Y005069D01*
X037699Y004827D01*
X037830Y004511D01*
X037830Y003389D01*
X037699Y003073D01*
X037457Y002831D01*
X037141Y002700D01*
X036799Y002700D01*
X036483Y002831D01*
X036241Y003073D01*
X036110Y003389D01*
X036110Y004511D01*
X036119Y004532D01*
X034480Y006170D01*
X033980Y006170D01*
X034950Y005200D01*
X035161Y005200D01*
X035477Y005069D01*
X035719Y004827D01*
X035850Y004511D01*
X035850Y003389D01*
X035719Y003073D01*
X035477Y002831D01*
X035161Y002700D01*
X034819Y002700D01*
X034503Y002831D01*
X034261Y003073D01*
X034130Y003389D01*
X034130Y004511D01*
X034133Y004518D01*
X032730Y005920D01*
X032230Y005920D01*
X032950Y005200D01*
X033081Y005200D01*
X033397Y005069D01*
X033639Y004827D01*
X033770Y004511D01*
X033770Y003389D01*
X033639Y003073D01*
X033397Y002831D01*
X033081Y002700D01*
X032739Y002700D01*
X032423Y002831D01*
X032181Y003073D01*
X032050Y003389D01*
X032050Y004511D01*
X032076Y004574D01*
X030980Y005670D01*
X030980Y005670D01*
X031379Y005270D01*
X031460Y005075D01*
X031460Y005026D01*
X031659Y004827D01*
X031790Y004511D01*
X031790Y003389D01*
X031659Y003073D01*
X031417Y002831D01*
X031101Y002700D01*
X030759Y002700D01*
X030443Y002831D01*
X030201Y003073D01*
X030070Y003389D01*
X030070Y004511D01*
X030201Y004827D01*
X030262Y004888D01*
X029730Y005420D01*
X029433Y005420D01*
X029480Y005305D01*
X029480Y005046D01*
X029699Y004827D01*
X029830Y004511D01*
X029830Y003389D01*
X029699Y003073D01*
X029457Y002831D01*
X029141Y002700D01*
X028799Y002700D01*
X028483Y002831D01*
X028241Y003073D01*
X028110Y003389D01*
X028110Y004511D01*
X028241Y004827D01*
X028407Y004993D01*
X028230Y005170D01*
X027233Y005170D01*
X027477Y005069D01*
X027719Y004827D01*
X027850Y004511D01*
X027850Y003389D01*
X027719Y003073D01*
X027477Y002831D01*
X027161Y002700D01*
X026819Y002700D01*
X026503Y002831D01*
X026261Y003073D01*
X026130Y003389D01*
X026130Y004511D01*
X026133Y004518D01*
X025730Y004920D01*
X025576Y004920D01*
X025669Y004827D01*
X025800Y004511D01*
X025800Y003389D01*
X025669Y003073D01*
X025427Y002831D01*
X025111Y002700D01*
X024769Y002700D01*
X024453Y002831D01*
X024211Y003073D01*
X024080Y003389D01*
X024080Y004070D01*
X023820Y004330D01*
X023820Y003389D01*
X023689Y003073D01*
X023447Y002831D01*
X023131Y002700D01*
X022789Y002700D01*
X022473Y002831D01*
X022231Y003073D01*
X022100Y003389D01*
X022100Y003966D01*
X021770Y004296D01*
X021770Y003389D01*
X021639Y003073D01*
X021397Y002831D01*
X021081Y002700D01*
X020739Y002700D01*
X020423Y002831D01*
X020181Y003073D01*
X020050Y003389D01*
X020050Y004100D01*
X019790Y004360D01*
X019790Y003389D01*
X019659Y003073D01*
X019417Y002831D01*
X019101Y002700D01*
X018759Y002700D01*
X018443Y002831D01*
X018201Y003073D01*
X018070Y003389D01*
X018070Y004080D01*
X017830Y004320D01*
X017830Y003389D01*
X017699Y003073D01*
X017457Y002831D01*
X017141Y002700D01*
X016799Y002700D01*
X016483Y002831D01*
X016241Y003073D01*
X016110Y003389D01*
X016110Y004511D01*
X016119Y004532D01*
X013980Y006670D01*
X012980Y006670D01*
X014558Y005092D01*
X014819Y005200D01*
X015161Y005200D01*
X015477Y005069D01*
X015719Y004827D01*
X015850Y004511D01*
X015850Y003389D01*
X015719Y003073D01*
X015477Y002831D01*
X015161Y002700D01*
X014819Y002700D01*
X014503Y002831D01*
X014261Y003073D01*
X014130Y003389D01*
X014130Y004020D01*
X013770Y004380D01*
X013770Y003389D01*
X013639Y003073D01*
X013397Y002831D01*
X013081Y002700D01*
X012739Y002700D01*
X012423Y002831D01*
X012181Y003073D01*
X012050Y003389D01*
X012050Y004100D01*
X011790Y004360D01*
X011790Y003389D01*
X011659Y003073D01*
X011417Y002831D01*
X011101Y002700D01*
X010759Y002700D01*
X010443Y002831D01*
X010201Y003073D01*
X010070Y003389D01*
X010070Y004511D01*
X010090Y004560D01*
X009230Y005420D01*
X008730Y005420D01*
X008950Y005200D01*
X009141Y005200D01*
X009457Y005069D01*
X009699Y004827D01*
X009830Y004511D01*
X009830Y003389D01*
X009699Y003073D01*
X009457Y002831D01*
X009141Y002700D01*
X008799Y002700D01*
X008483Y002831D01*
X008241Y003073D01*
X008110Y003389D01*
X008110Y004511D01*
X008119Y004532D01*
X007730Y004920D01*
X007626Y004920D01*
X007719Y004827D01*
X007850Y004511D01*
X007850Y003389D01*
X007719Y003073D01*
X007477Y002831D01*
X007161Y002700D01*
X006819Y002700D01*
X006503Y002831D01*
X006261Y003073D01*
X006130Y003389D01*
X006130Y004420D01*
X005800Y004420D01*
X005800Y003389D01*
X005669Y003073D01*
X005427Y002831D01*
X005111Y002700D01*
X004769Y002700D01*
X004453Y002831D01*
X004211Y003073D01*
X004080Y003389D01*
X004080Y004511D01*
X004211Y004827D01*
X004267Y004883D01*
X003650Y005501D01*
X003501Y005650D01*
X003420Y005845D01*
X003420Y006695D01*
X003403Y006688D01*
X002497Y006688D01*
X002214Y006805D01*
X002040Y006979D01*
X002040Y004694D01*
X002136Y004598D01*
X002231Y004827D01*
X002473Y005069D01*
X002789Y005200D01*
X003131Y005200D01*
X003447Y005069D01*
X003689Y004827D01*
X003820Y004511D01*
X003820Y003389D01*
X003689Y003073D01*
X003447Y002831D01*
X003131Y002700D01*
X002789Y002700D01*
X002473Y002831D01*
X002231Y003073D01*
X002112Y003360D01*
X001833Y003360D01*
X001616Y003450D01*
X001200Y003866D01*
X001200Y002812D01*
X001268Y002830D01*
X001632Y002830D01*
X001983Y002736D01*
X002297Y002554D01*
X002554Y002297D01*
X002736Y001983D01*
X002830Y001632D01*
X002830Y001268D01*
X002830Y001310D02*
X061570Y001310D01*
X061679Y002008D02*
X002721Y002008D01*
X002773Y002707D02*
X002034Y002707D01*
X003147Y002707D02*
X004753Y002707D01*
X005127Y002707D02*
X006803Y002707D01*
X007177Y002707D02*
X008783Y002707D01*
X009157Y002707D02*
X010743Y002707D01*
X011117Y002707D02*
X012723Y002707D01*
X013097Y002707D02*
X014803Y002707D01*
X015177Y002707D02*
X016783Y002707D01*
X017157Y002707D02*
X018743Y002707D01*
X019117Y002707D02*
X020723Y002707D01*
X021097Y002707D02*
X022773Y002707D01*
X023147Y002707D02*
X024753Y002707D01*
X025127Y002707D02*
X026803Y002707D01*
X027177Y002707D02*
X028783Y002707D01*
X029157Y002707D02*
X030743Y002707D01*
X031117Y002707D02*
X032723Y002707D01*
X033097Y002707D02*
X034803Y002707D01*
X035177Y002707D02*
X036783Y002707D01*
X037157Y002707D02*
X038743Y002707D01*
X039117Y002707D02*
X040723Y002707D01*
X041097Y002707D02*
X042773Y002707D01*
X043147Y002707D02*
X044753Y002707D01*
X045127Y002707D02*
X046803Y002707D01*
X047177Y002707D02*
X048783Y002707D01*
X049157Y002707D02*
X050743Y002707D01*
X051117Y002707D02*
X052723Y002707D01*
X053097Y002707D02*
X054803Y002707D01*
X055177Y002707D02*
X056783Y002707D01*
X057157Y002707D02*
X058743Y002707D01*
X059117Y002707D02*
X060723Y002707D01*
X061097Y002707D02*
X062366Y002707D01*
X061770Y003405D02*
X063192Y003405D01*
X063192Y004104D02*
X061770Y004104D01*
X060050Y004104D02*
X059790Y004104D01*
X059790Y003405D02*
X060050Y003405D01*
X058070Y003405D02*
X057830Y003405D01*
X057830Y004104D02*
X058070Y004104D01*
X058191Y004802D02*
X057709Y004802D01*
X057399Y005501D02*
X058150Y005501D01*
X057451Y006199D02*
X056701Y006199D01*
X055900Y005501D02*
X055399Y005501D01*
X055201Y006199D02*
X054701Y006199D01*
X053900Y005501D02*
X053399Y005501D01*
X053649Y004802D02*
X054251Y004802D01*
X055729Y004802D02*
X056231Y004802D01*
X056110Y004104D02*
X055850Y004104D01*
X055850Y003405D02*
X056110Y003405D01*
X054130Y003405D02*
X053770Y003405D01*
X053770Y004104D02*
X054130Y004104D01*
X052050Y004104D02*
X051790Y004104D01*
X051790Y003405D02*
X052050Y003405D01*
X050070Y003405D02*
X049830Y003405D01*
X049830Y004104D02*
X050070Y004104D01*
X050191Y004802D02*
X049709Y004802D01*
X049900Y005501D02*
X049399Y005501D01*
X048231Y004802D02*
X047729Y004802D01*
X046251Y004802D02*
X045679Y004802D01*
X045800Y004104D02*
X046130Y004104D01*
X046130Y003405D02*
X045800Y003405D01*
X044080Y003405D02*
X043820Y003405D01*
X043820Y004104D02*
X044080Y004104D01*
X044201Y004802D02*
X043699Y004802D01*
X042100Y004104D02*
X041770Y004104D01*
X041770Y003405D02*
X042100Y003405D01*
X040050Y003405D02*
X039790Y003405D01*
X039790Y004104D02*
X040050Y004104D01*
X039848Y004802D02*
X039669Y004802D01*
X039150Y005501D02*
X038649Y005501D01*
X038451Y006199D02*
X037951Y006199D01*
X037150Y005501D02*
X036649Y005501D01*
X036451Y006199D02*
X035951Y006199D01*
X035150Y005501D02*
X034649Y005501D01*
X033848Y004802D02*
X033649Y004802D01*
X033150Y005501D02*
X032649Y005501D01*
X031848Y004802D02*
X031669Y004802D01*
X031150Y005501D02*
X031149Y005501D01*
X030191Y004802D02*
X029709Y004802D01*
X028231Y004802D02*
X027729Y004802D01*
X027850Y004104D02*
X028110Y004104D01*
X028110Y003405D02*
X027850Y003405D01*
X026130Y003405D02*
X025800Y003405D01*
X025800Y004104D02*
X026130Y004104D01*
X025848Y004802D02*
X025679Y004802D01*
X024047Y004104D02*
X023820Y004104D01*
X023820Y003405D02*
X024080Y003405D01*
X022100Y003405D02*
X021770Y003405D01*
X021770Y004104D02*
X021962Y004104D01*
X020047Y004104D02*
X019790Y004104D01*
X019790Y003405D02*
X020050Y003405D01*
X018070Y003405D02*
X017830Y003405D01*
X017830Y004104D02*
X018047Y004104D01*
X016110Y004104D02*
X015850Y004104D01*
X015850Y003405D02*
X016110Y003405D01*
X014130Y003405D02*
X013770Y003405D01*
X013770Y004104D02*
X014047Y004104D01*
X015729Y004802D02*
X015848Y004802D01*
X015150Y005501D02*
X014149Y005501D01*
X014451Y006199D02*
X013451Y006199D01*
X012650Y005501D02*
X012149Y005501D01*
X012534Y005115D02*
X011230Y006420D01*
X011730Y006420D01*
X012950Y005200D01*
X012739Y005200D01*
X012534Y005115D01*
X011951Y006199D02*
X011451Y006199D01*
X010650Y005501D02*
X010649Y005501D01*
X010950Y005200D02*
X010230Y005920D01*
X010230Y005920D01*
X010950Y005200D01*
X010950Y005200D01*
X009848Y004802D02*
X009709Y004802D01*
X007848Y004802D02*
X007729Y004802D01*
X007850Y004104D02*
X008110Y004104D01*
X008110Y003405D02*
X007850Y003405D01*
X006130Y003405D02*
X005800Y003405D01*
X005800Y004104D02*
X006130Y004104D01*
X004080Y004104D02*
X003820Y004104D01*
X003820Y003405D02*
X004080Y003405D01*
X001724Y003405D02*
X001200Y003405D01*
X002040Y004802D02*
X002221Y004802D01*
X002040Y005501D02*
X003650Y005501D01*
X003699Y004802D02*
X004201Y004802D01*
X003420Y006199D02*
X002040Y006199D01*
X002040Y006898D02*
X002121Y006898D01*
X001200Y008534D02*
X001200Y024588D01*
X001268Y024570D01*
X001632Y024570D01*
X001983Y024664D01*
X002297Y024846D01*
X002370Y024918D01*
X002370Y009160D01*
X002214Y009095D01*
X002159Y009040D01*
X001833Y009040D01*
X001616Y008950D01*
X001450Y008784D01*
X001200Y008534D01*
X001200Y008993D02*
X001719Y008993D01*
X001200Y009692D02*
X002370Y009692D01*
X002370Y010390D02*
X001200Y010390D01*
X001200Y011089D02*
X002370Y011089D01*
X002370Y011787D02*
X001200Y011787D01*
X001200Y012486D02*
X002370Y012486D01*
X002370Y013184D02*
X001200Y013184D01*
X001200Y013883D02*
X002370Y013883D01*
X002370Y014581D02*
X001200Y014581D01*
X001200Y015280D02*
X002370Y015280D01*
X002370Y015978D02*
X001200Y015978D01*
X001200Y016677D02*
X002370Y016677D01*
X002370Y017375D02*
X001200Y017375D01*
X001200Y018074D02*
X002370Y018074D01*
X002370Y018772D02*
X001200Y018772D01*
X001200Y019471D02*
X002370Y019471D01*
X002370Y020169D02*
X001200Y020169D01*
X001200Y020868D02*
X002370Y020868D01*
X002370Y021566D02*
X001200Y021566D01*
X001200Y022265D02*
X002370Y022265D01*
X002370Y022963D02*
X001200Y022963D01*
X001200Y023662D02*
X002370Y023662D01*
X002370Y024360D02*
X001200Y024360D01*
X003550Y024360D02*
X006790Y024360D01*
X006920Y024230D02*
X006920Y023041D01*
X006761Y023200D01*
X006139Y023200D01*
X005700Y022761D01*
X005700Y022545D01*
X005554Y022797D01*
X005297Y023054D01*
X004983Y023236D01*
X004632Y023330D01*
X004268Y023330D01*
X003917Y023236D01*
X003603Y023054D01*
X003550Y023002D01*
X003550Y027434D01*
X003689Y027573D01*
X003820Y027889D01*
X003820Y029011D01*
X003689Y029327D01*
X003447Y029569D01*
X003131Y029700D01*
X002789Y029700D01*
X002473Y029569D01*
X002231Y029327D01*
X002100Y029011D01*
X002100Y027889D01*
X002231Y027573D01*
X002370Y027434D01*
X002370Y026982D01*
X002297Y027054D01*
X001983Y027236D01*
X001632Y027330D01*
X001268Y027330D01*
X001200Y027312D01*
X001200Y030570D01*
X061715Y030570D01*
X061664Y030483D01*
X061570Y030132D01*
X061570Y029768D01*
X061664Y029417D01*
X061846Y029103D01*
X062103Y028846D01*
X062417Y028664D01*
X062768Y028570D01*
X063132Y028570D01*
X063192Y028586D01*
X063192Y025565D01*
X063186Y025571D01*
X062903Y025689D01*
X061997Y025689D01*
X061714Y025571D01*
X061497Y025355D01*
X061380Y025072D01*
X061380Y024765D01*
X061497Y024482D01*
X061553Y024426D01*
X061497Y024370D01*
X061380Y024087D01*
X061380Y023781D01*
X061480Y023540D01*
X061333Y023540D01*
X061116Y023450D01*
X060950Y023284D01*
X060450Y022784D01*
X060360Y022567D01*
X060360Y018333D01*
X060450Y018116D01*
X060616Y017950D01*
X060450Y017784D01*
X060360Y017567D01*
X060360Y013040D01*
X052833Y013040D01*
X052616Y012950D01*
X052450Y012784D01*
X051950Y012284D01*
X051860Y012067D01*
X051860Y011101D01*
X051761Y011200D01*
X051480Y011200D01*
X051480Y014730D01*
X051670Y014920D01*
X056680Y014920D01*
X056680Y014631D01*
X057131Y014180D01*
X057769Y014180D01*
X057950Y014361D01*
X058131Y014180D01*
X058769Y014180D01*
X059220Y014631D01*
X059220Y015269D01*
X059039Y015450D01*
X059220Y015631D01*
X059220Y016269D01*
X059039Y016450D01*
X059220Y016631D01*
X059220Y017269D01*
X059039Y017450D01*
X059220Y017631D01*
X059220Y018269D01*
X058769Y018720D01*
X058430Y018720D01*
X057750Y019399D01*
X057555Y019480D01*
X052730Y019480D01*
X053899Y020650D01*
X053980Y020845D01*
X053980Y020919D01*
X054200Y021139D01*
X054200Y021761D01*
X054011Y021950D01*
X054200Y022139D01*
X054200Y022761D01*
X053980Y022981D01*
X053980Y024230D01*
X054170Y024420D01*
X058555Y024420D01*
X058750Y024501D01*
X061250Y027001D01*
X061399Y027150D01*
X061480Y027345D01*
X061480Y027414D01*
X061639Y027573D01*
X061770Y027889D01*
X061770Y029011D01*
X061639Y029327D01*
X061397Y029569D01*
X061081Y029700D01*
X060739Y029700D01*
X060423Y029569D01*
X060181Y029327D01*
X060050Y029011D01*
X060050Y027889D01*
X060181Y027573D01*
X060252Y027502D01*
X058230Y025480D01*
X057730Y025480D01*
X059250Y027001D01*
X059399Y027150D01*
X059480Y027345D01*
X059480Y027394D01*
X059659Y027573D01*
X059790Y027889D01*
X059790Y029011D01*
X059659Y029327D01*
X059417Y029569D01*
X059101Y029700D01*
X058759Y029700D01*
X058443Y029569D01*
X058201Y029327D01*
X058070Y029011D01*
X058070Y027889D01*
X058201Y027573D01*
X058262Y027512D01*
X056730Y025980D01*
X056730Y025980D01*
X057250Y026501D01*
X057399Y026650D01*
X057480Y026845D01*
X057480Y027354D01*
X057699Y027573D01*
X057830Y027889D01*
X057830Y029011D01*
X057699Y029327D01*
X057457Y029569D01*
X057141Y029700D01*
X056799Y029700D01*
X056483Y029569D01*
X056241Y029327D01*
X056110Y029011D01*
X056110Y027889D01*
X056241Y027573D01*
X056420Y027394D01*
X056420Y027170D01*
X055730Y026480D01*
X054700Y026480D01*
X054750Y026501D01*
X055250Y027001D01*
X055399Y027150D01*
X055474Y027330D01*
X055477Y027331D01*
X055719Y027573D01*
X055850Y027889D01*
X055850Y029011D01*
X055719Y029327D01*
X055477Y029569D01*
X055161Y029700D01*
X054819Y029700D01*
X054503Y029569D01*
X054261Y029327D01*
X054130Y029011D01*
X054130Y027889D01*
X054261Y027573D01*
X054292Y027542D01*
X054230Y027480D01*
X053546Y027480D01*
X053639Y027573D01*
X053770Y027889D01*
X053770Y029011D01*
X053639Y029327D01*
X053397Y029569D01*
X053081Y029700D01*
X052739Y029700D01*
X052423Y029569D01*
X052181Y029327D01*
X052050Y029011D01*
X052050Y027889D01*
X052076Y027826D01*
X049001Y024750D01*
X048980Y024700D01*
X048980Y024730D01*
X051250Y027001D01*
X051399Y027150D01*
X051480Y027345D01*
X051480Y027394D01*
X051659Y027573D01*
X051790Y027889D01*
X051790Y029011D01*
X051659Y029327D01*
X051417Y029569D01*
X051101Y029700D01*
X050759Y029700D01*
X050443Y029569D01*
X050201Y029327D01*
X050070Y029011D01*
X050070Y027889D01*
X050201Y027573D01*
X050262Y027512D01*
X048001Y025250D01*
X047980Y025200D01*
X047980Y025230D01*
X049250Y026501D01*
X049399Y026650D01*
X049480Y026845D01*
X049480Y027354D01*
X049699Y027573D01*
X049830Y027889D01*
X049830Y029011D01*
X049699Y029327D01*
X049457Y029569D01*
X049141Y029700D01*
X048799Y029700D01*
X048483Y029569D01*
X048241Y029327D01*
X048110Y029011D01*
X048110Y027889D01*
X048241Y027573D01*
X048420Y027394D01*
X048420Y027170D01*
X047001Y025750D01*
X046980Y025700D01*
X046980Y025730D01*
X047250Y026001D01*
X047399Y026150D01*
X047480Y026345D01*
X047480Y027334D01*
X047719Y027573D01*
X047850Y027889D01*
X047850Y029011D01*
X047719Y029327D01*
X047477Y029569D01*
X047161Y029700D01*
X046819Y029700D01*
X046503Y029569D01*
X046261Y029327D01*
X046130Y029011D01*
X046130Y027889D01*
X046261Y027573D01*
X046420Y027414D01*
X046420Y026670D01*
X046001Y026250D01*
X045920Y026055D01*
X045920Y025200D01*
X045899Y025250D01*
X045480Y025670D01*
X045480Y027384D01*
X045669Y027573D01*
X045800Y027889D01*
X045800Y029011D01*
X045669Y029327D01*
X045427Y029569D01*
X045111Y029700D01*
X044769Y029700D01*
X044453Y029569D01*
X044211Y029327D01*
X044080Y029011D01*
X044080Y027889D01*
X044211Y027573D01*
X044420Y027364D01*
X044420Y025345D01*
X044501Y025150D01*
X044650Y025001D01*
X044920Y024730D01*
X044920Y023041D01*
X044761Y023200D01*
X044139Y023200D01*
X043700Y022761D01*
X043700Y022545D01*
X043554Y022797D01*
X043297Y023054D01*
X042983Y023236D01*
X042632Y023330D01*
X042268Y023330D01*
X041917Y023236D01*
X041603Y023054D01*
X041540Y022992D01*
X041540Y025206D01*
X043460Y027126D01*
X043550Y027343D01*
X043550Y027434D01*
X043689Y027573D01*
X043820Y027889D01*
X043820Y029011D01*
X043689Y029327D01*
X043447Y029569D01*
X043131Y029700D01*
X042789Y029700D01*
X042473Y029569D01*
X042231Y029327D01*
X042100Y029011D01*
X042100Y027889D01*
X042231Y027573D01*
X042235Y027569D01*
X040616Y025950D01*
X040450Y025784D01*
X040360Y025567D01*
X040360Y018629D01*
X040269Y018720D01*
X039930Y018720D01*
X039250Y019399D01*
X039055Y019480D01*
X034230Y019480D01*
X034750Y020001D01*
X034899Y020150D01*
X034980Y020345D01*
X034980Y020919D01*
X035200Y021139D01*
X035200Y021761D01*
X035011Y021950D01*
X035200Y022139D01*
X035200Y022761D01*
X034980Y022981D01*
X034980Y023230D01*
X036170Y024420D01*
X038055Y024420D01*
X038250Y024501D01*
X040950Y027200D01*
X041081Y027200D01*
X041397Y027331D01*
X041639Y027573D01*
X041770Y027889D01*
X041770Y029011D01*
X041639Y029327D01*
X041397Y029569D01*
X041081Y029700D01*
X040739Y029700D01*
X040423Y029569D01*
X040181Y029327D01*
X040050Y029011D01*
X040050Y027889D01*
X040076Y027826D01*
X039480Y027230D01*
X039480Y027394D01*
X039659Y027573D01*
X039790Y027889D01*
X039790Y029011D01*
X039659Y029327D01*
X039417Y029569D01*
X039101Y029700D01*
X038759Y029700D01*
X038443Y029569D01*
X038201Y029327D01*
X038070Y029011D01*
X038070Y027889D01*
X038201Y027573D01*
X038420Y027354D01*
X038420Y027170D01*
X037730Y026480D01*
X036230Y026480D01*
X036950Y027200D01*
X037141Y027200D01*
X037457Y027331D01*
X037699Y027573D01*
X037830Y027889D01*
X037830Y029011D01*
X037699Y029327D01*
X037457Y029569D01*
X037141Y029700D01*
X036799Y029700D01*
X036483Y029569D01*
X036241Y029327D01*
X036110Y029011D01*
X036110Y027889D01*
X036119Y027868D01*
X035480Y027230D01*
X035480Y027334D01*
X035719Y027573D01*
X035850Y027889D01*
X035850Y029011D01*
X035719Y029327D01*
X035477Y029569D01*
X035161Y029700D01*
X034819Y029700D01*
X034503Y029569D01*
X034261Y029327D01*
X034130Y029011D01*
X034130Y027889D01*
X034261Y027573D01*
X034420Y027414D01*
X034420Y027170D01*
X031001Y023750D01*
X030980Y023700D01*
X030980Y024230D01*
X033250Y026501D01*
X033399Y026650D01*
X033480Y026845D01*
X033480Y027414D01*
X033639Y027573D01*
X033770Y027889D01*
X033770Y029011D01*
X033639Y029327D01*
X033397Y029569D01*
X033081Y029700D01*
X032739Y029700D01*
X032423Y029569D01*
X032181Y029327D01*
X032050Y029011D01*
X032050Y027889D01*
X032181Y027573D01*
X032420Y027334D01*
X032420Y027170D01*
X030001Y024750D01*
X029980Y024700D01*
X029980Y025230D01*
X031250Y026501D01*
X031399Y026650D01*
X031480Y026845D01*
X031480Y027394D01*
X031659Y027573D01*
X031790Y027889D01*
X031790Y029011D01*
X031659Y029327D01*
X031417Y029569D01*
X031101Y029700D01*
X030759Y029700D01*
X030443Y029569D01*
X030201Y029327D01*
X030070Y029011D01*
X030070Y027889D01*
X030201Y027573D01*
X030420Y027354D01*
X030420Y027170D01*
X029001Y025750D01*
X028980Y025700D01*
X028980Y026230D01*
X029250Y026501D01*
X029399Y026650D01*
X029480Y026845D01*
X029480Y027354D01*
X029699Y027573D01*
X029830Y027889D01*
X029830Y029011D01*
X029699Y029327D01*
X029457Y029569D01*
X029141Y029700D01*
X028799Y029700D01*
X028483Y029569D01*
X028241Y029327D01*
X028110Y029011D01*
X028110Y027889D01*
X028241Y027573D01*
X028420Y027394D01*
X028420Y027170D01*
X028001Y026750D01*
X027950Y026628D01*
X027899Y026750D01*
X027480Y027170D01*
X027480Y027334D01*
X027719Y027573D01*
X027850Y027889D01*
X027850Y029011D01*
X027719Y029327D01*
X027477Y029569D01*
X027161Y029700D01*
X026819Y029700D01*
X026503Y029569D01*
X026261Y029327D01*
X026130Y029011D01*
X026130Y027889D01*
X026261Y027573D01*
X026420Y027414D01*
X026420Y026845D01*
X026501Y026650D01*
X026650Y026501D01*
X026920Y026230D01*
X026920Y025700D01*
X026899Y025750D01*
X025480Y027170D01*
X025480Y027384D01*
X025669Y027573D01*
X025800Y027889D01*
X025800Y029011D01*
X025669Y029327D01*
X025427Y029569D01*
X025111Y029700D01*
X024769Y029700D01*
X024453Y029569D01*
X024211Y029327D01*
X024080Y029011D01*
X024080Y027889D01*
X024211Y027573D01*
X024420Y027364D01*
X024420Y026845D01*
X024501Y026650D01*
X024650Y026501D01*
X025920Y025230D01*
X025920Y023041D01*
X025761Y023200D01*
X025139Y023200D01*
X024700Y022761D01*
X024700Y022545D01*
X024554Y022797D01*
X024297Y023054D01*
X023983Y023236D01*
X023632Y023330D01*
X023268Y023330D01*
X022917Y023236D01*
X022603Y023054D01*
X022540Y022992D01*
X022540Y025206D01*
X023460Y026126D01*
X023550Y026343D01*
X023550Y027434D01*
X023689Y027573D01*
X023820Y027889D01*
X023820Y029011D01*
X023689Y029327D01*
X023447Y029569D01*
X023131Y029700D01*
X022789Y029700D01*
X022473Y029569D01*
X022231Y029327D01*
X022100Y029011D01*
X022100Y027889D01*
X022231Y027573D01*
X022370Y027434D01*
X022370Y026704D01*
X021616Y025950D01*
X021450Y025784D01*
X021360Y025567D01*
X021360Y013194D01*
X021206Y013040D01*
X014833Y013040D01*
X014616Y012950D01*
X014450Y012784D01*
X013950Y012284D01*
X013860Y012067D01*
X013860Y011101D01*
X013761Y011200D01*
X013480Y011200D01*
X013480Y014730D01*
X013670Y014920D01*
X018680Y014920D01*
X018680Y014631D01*
X019131Y014180D01*
X019769Y014180D01*
X019950Y014361D01*
X020131Y014180D01*
X020769Y014180D01*
X021220Y014631D01*
X021220Y015269D01*
X021039Y015450D01*
X021220Y015631D01*
X021220Y016269D01*
X021039Y016450D01*
X021220Y016631D01*
X021220Y017269D01*
X021039Y017450D01*
X021220Y017631D01*
X021220Y018269D01*
X020769Y018720D01*
X020430Y018720D01*
X019750Y019399D01*
X019555Y019480D01*
X014230Y019480D01*
X015450Y020700D01*
X015761Y020700D01*
X016200Y021139D01*
X016200Y021761D01*
X016041Y021920D01*
X016555Y021920D01*
X016750Y022001D01*
X021250Y026501D01*
X021399Y026650D01*
X021480Y026845D01*
X021480Y027414D01*
X021639Y027573D01*
X021770Y027889D01*
X021770Y029011D01*
X021639Y029327D01*
X021397Y029569D01*
X021081Y029700D01*
X020739Y029700D01*
X020423Y029569D01*
X020181Y029327D01*
X020050Y029011D01*
X020050Y027889D01*
X020181Y027573D01*
X020420Y027334D01*
X020420Y027170D01*
X016230Y022980D01*
X015981Y022980D01*
X015855Y023106D01*
X019250Y026501D01*
X019399Y026650D01*
X019480Y026845D01*
X019480Y027394D01*
X019659Y027573D01*
X019790Y027889D01*
X019790Y029011D01*
X019659Y029327D01*
X019417Y029569D01*
X019101Y029700D01*
X018759Y029700D01*
X018443Y029569D01*
X018201Y029327D01*
X018070Y029011D01*
X018070Y027889D01*
X018201Y027573D01*
X018420Y027354D01*
X018420Y027170D01*
X014450Y023200D01*
X014139Y023200D01*
X013980Y023041D01*
X013980Y023230D01*
X017250Y026501D01*
X017399Y026650D01*
X017480Y026845D01*
X017480Y027354D01*
X017699Y027573D01*
X017830Y027889D01*
X017830Y029011D01*
X017699Y029327D01*
X017457Y029569D01*
X017141Y029700D01*
X016799Y029700D01*
X016483Y029569D01*
X016241Y029327D01*
X016110Y029011D01*
X016110Y027889D01*
X016241Y027573D01*
X016420Y027394D01*
X016420Y027170D01*
X013001Y023750D01*
X012980Y023700D01*
X012980Y024230D01*
X015250Y026501D01*
X015399Y026650D01*
X015480Y026845D01*
X015480Y027334D01*
X015719Y027573D01*
X015850Y027889D01*
X015850Y029011D01*
X015719Y029327D01*
X015477Y029569D01*
X015161Y029700D01*
X014819Y029700D01*
X014503Y029569D01*
X014261Y029327D01*
X014130Y029011D01*
X014130Y027889D01*
X014261Y027573D01*
X014420Y027414D01*
X014420Y027170D01*
X012001Y024750D01*
X011980Y024700D01*
X011980Y025230D01*
X013250Y026501D01*
X013399Y026650D01*
X013480Y026845D01*
X013480Y027414D01*
X013639Y027573D01*
X013770Y027889D01*
X013770Y029011D01*
X013639Y029327D01*
X013397Y029569D01*
X013081Y029700D01*
X012739Y029700D01*
X012423Y029569D01*
X012181Y029327D01*
X012050Y029011D01*
X012050Y027889D01*
X012181Y027573D01*
X012420Y027334D01*
X012420Y027170D01*
X011001Y025750D01*
X010980Y025700D01*
X010980Y026230D01*
X011250Y026501D01*
X011399Y026650D01*
X011480Y026845D01*
X011480Y027394D01*
X011659Y027573D01*
X011790Y027889D01*
X011790Y029011D01*
X011659Y029327D01*
X011417Y029569D01*
X011101Y029700D01*
X010759Y029700D01*
X010443Y029569D01*
X010201Y029327D01*
X010070Y029011D01*
X010070Y027889D01*
X010201Y027573D01*
X010420Y027354D01*
X010420Y027170D01*
X010001Y026750D01*
X009950Y026628D01*
X009899Y026750D01*
X009480Y027170D01*
X009480Y027354D01*
X009699Y027573D01*
X009830Y027889D01*
X009830Y029011D01*
X009699Y029327D01*
X009457Y029569D01*
X009141Y029700D01*
X008799Y029700D01*
X008483Y029569D01*
X008241Y029327D01*
X008110Y029011D01*
X008110Y027889D01*
X008241Y027573D01*
X008420Y027394D01*
X008420Y026845D01*
X008501Y026650D01*
X008650Y026501D01*
X008920Y026230D01*
X008920Y025700D01*
X008899Y025750D01*
X007480Y027170D01*
X007480Y027334D01*
X007719Y027573D01*
X007850Y027889D01*
X007850Y029011D01*
X007719Y029327D01*
X007477Y029569D01*
X007161Y029700D01*
X006819Y029700D01*
X006503Y029569D01*
X006261Y029327D01*
X006130Y029011D01*
X006130Y027889D01*
X006261Y027573D01*
X006420Y027414D01*
X006420Y026845D01*
X006501Y026650D01*
X006650Y026501D01*
X007920Y025230D01*
X007920Y024700D01*
X007899Y024750D01*
X005480Y027170D01*
X005480Y027384D01*
X005669Y027573D01*
X005800Y027889D01*
X005800Y029011D01*
X005669Y029327D01*
X005427Y029569D01*
X005111Y029700D01*
X004769Y029700D01*
X004453Y029569D01*
X004211Y029327D01*
X004080Y029011D01*
X004080Y027889D01*
X004211Y027573D01*
X004420Y027364D01*
X004420Y026845D01*
X004501Y026650D01*
X004650Y026501D01*
X006920Y024230D01*
X006920Y023662D02*
X003550Y023662D01*
X005388Y022963D02*
X005902Y022963D01*
X005830Y022009D02*
X005889Y021950D01*
X005830Y021891D01*
X005830Y022009D01*
X005700Y021355D02*
X005700Y021139D01*
X005859Y020980D01*
X005432Y020980D01*
X005554Y021103D01*
X005700Y021355D01*
X003916Y020665D02*
X003650Y020399D01*
X003550Y020300D01*
X003550Y020898D01*
X003603Y020846D01*
X003916Y020665D01*
X003581Y020868D02*
X003550Y020868D01*
X006670Y017920D02*
X008670Y017920D01*
X008501Y017750D01*
X008420Y017555D01*
X008420Y011200D01*
X008139Y011200D01*
X007950Y011011D01*
X007761Y011200D01*
X007139Y011200D01*
X006950Y011011D01*
X006761Y011200D01*
X006480Y011200D01*
X006480Y017730D01*
X006670Y017920D01*
X006480Y017375D02*
X008420Y017375D01*
X008420Y016677D02*
X006480Y016677D01*
X006480Y015978D02*
X008420Y015978D01*
X008420Y015280D02*
X006480Y015280D01*
X006480Y014581D02*
X008420Y014581D01*
X008420Y013883D02*
X006480Y013883D01*
X006480Y013184D02*
X008420Y013184D01*
X008420Y012486D02*
X006480Y012486D01*
X006480Y011787D02*
X008420Y011787D01*
X008028Y011089D02*
X007872Y011089D01*
X007028Y011089D02*
X006872Y011089D01*
X010480Y011200D02*
X010480Y016730D01*
X010670Y016920D01*
X012200Y016920D01*
X012150Y016899D01*
X011650Y016399D01*
X011501Y016250D01*
X011420Y016055D01*
X011420Y011200D01*
X011139Y011200D01*
X010950Y011011D01*
X010761Y011200D01*
X010480Y011200D01*
X010872Y011089D02*
X011028Y011089D01*
X011420Y011787D02*
X010480Y011787D01*
X010480Y012486D02*
X011420Y012486D01*
X011420Y013184D02*
X010480Y013184D01*
X010480Y013883D02*
X011420Y013883D01*
X011420Y014581D02*
X010480Y014581D01*
X010480Y015280D02*
X011420Y015280D01*
X012480Y015280D02*
X012530Y015280D01*
X012501Y015250D02*
X012480Y015200D01*
X012480Y015730D01*
X012670Y015920D01*
X013200Y015920D01*
X013150Y015899D01*
X013001Y015750D01*
X012501Y015250D01*
X013480Y014581D02*
X018730Y014581D01*
X021170Y014581D02*
X021360Y014581D01*
X021360Y013883D02*
X013480Y013883D01*
X013480Y013184D02*
X021350Y013184D01*
X021360Y011860D02*
X021360Y010194D01*
X021116Y009950D01*
X020950Y009784D01*
X020860Y009567D01*
X020860Y009155D01*
X020714Y009095D01*
X020497Y008878D01*
X020464Y008799D01*
X020415Y008750D01*
X020317Y008790D01*
X018662Y008790D01*
X018736Y008917D01*
X018830Y009268D01*
X018830Y009632D01*
X018736Y009983D01*
X018554Y010297D01*
X018297Y010554D01*
X017983Y010736D01*
X017632Y010830D01*
X017268Y010830D01*
X016917Y010736D01*
X016603Y010554D01*
X016346Y010297D01*
X016164Y009983D01*
X016125Y009836D01*
X016011Y009950D01*
X016200Y010139D01*
X016200Y010761D01*
X015761Y011200D01*
X015139Y011200D01*
X015040Y011101D01*
X015040Y011706D01*
X015194Y011860D01*
X021360Y011860D01*
X021360Y011787D02*
X015121Y011787D01*
X015872Y011089D02*
X021360Y011089D01*
X021360Y010390D02*
X018461Y010390D01*
X018814Y009692D02*
X020911Y009692D01*
X020612Y008993D02*
X018756Y008993D01*
X016238Y008790D02*
X015851Y008790D01*
X016125Y009064D01*
X016164Y008917D01*
X016238Y008790D01*
X016144Y008993D02*
X016054Y008993D01*
X015049Y008790D02*
X014851Y008790D01*
X014950Y008889D01*
X015049Y008790D01*
X014049Y008790D02*
X013851Y008790D01*
X013950Y008889D01*
X014049Y008790D01*
X013049Y008790D02*
X012851Y008790D01*
X012950Y008889D01*
X013049Y008790D01*
X016200Y010390D02*
X016439Y010390D01*
X013860Y011787D02*
X013480Y011787D01*
X013480Y012486D02*
X014151Y012486D01*
X011420Y015978D02*
X010480Y015978D01*
X010480Y016677D02*
X011927Y016677D01*
X013730Y017980D02*
X014170Y018420D01*
X018831Y018420D01*
X018680Y018269D01*
X018680Y017980D01*
X013730Y017980D01*
X013823Y018074D02*
X018680Y018074D01*
X020378Y018772D02*
X021360Y018772D01*
X021360Y018074D02*
X021220Y018074D01*
X021114Y017375D02*
X021360Y017375D01*
X021360Y016677D02*
X021220Y016677D01*
X021220Y015978D02*
X021360Y015978D01*
X021360Y015280D02*
X021209Y015280D01*
X024980Y015280D02*
X027420Y015280D01*
X027420Y014581D02*
X024980Y014581D01*
X024980Y013883D02*
X027420Y013883D01*
X027420Y013184D02*
X024980Y013184D01*
X024980Y012486D02*
X027420Y012486D01*
X027420Y011787D02*
X024980Y011787D01*
X025139Y011200D02*
X024980Y011041D01*
X024980Y016730D01*
X025670Y017420D01*
X027670Y017420D01*
X027501Y017250D01*
X027420Y017055D01*
X027420Y011200D01*
X027139Y011200D01*
X026950Y011011D01*
X026761Y011200D01*
X026139Y011200D01*
X025950Y011011D01*
X025761Y011200D01*
X025139Y011200D01*
X025028Y011089D02*
X024980Y011089D01*
X025872Y011089D02*
X026028Y011089D01*
X026872Y011089D02*
X027028Y011089D01*
X029480Y011200D02*
X029480Y016230D01*
X029670Y016420D01*
X030670Y016420D01*
X030501Y016250D01*
X030420Y016055D01*
X030420Y011200D01*
X030139Y011200D01*
X029950Y011011D01*
X029761Y011200D01*
X029480Y011200D01*
X029872Y011089D02*
X030028Y011089D01*
X030420Y011787D02*
X029480Y011787D01*
X029480Y012486D02*
X030420Y012486D01*
X030420Y013184D02*
X029480Y013184D01*
X029480Y013883D02*
X030420Y013883D01*
X030420Y014581D02*
X029480Y014581D01*
X029480Y015280D02*
X030420Y015280D01*
X031480Y015280D02*
X031530Y015280D01*
X031501Y015250D02*
X031480Y015200D01*
X031480Y015730D01*
X031670Y015920D01*
X032200Y015920D01*
X032150Y015899D01*
X032001Y015750D01*
X031501Y015250D01*
X032480Y014730D02*
X032670Y014920D01*
X038180Y014920D01*
X038180Y014631D01*
X038631Y014180D01*
X039269Y014180D01*
X039450Y014361D01*
X039631Y014180D01*
X039846Y014180D01*
X039616Y013950D01*
X039450Y013784D01*
X039206Y013540D01*
X033833Y013540D01*
X033616Y013450D01*
X033450Y013284D01*
X033116Y012950D01*
X032950Y012784D01*
X032860Y012567D01*
X032860Y011101D01*
X032761Y011200D01*
X032480Y011200D01*
X032480Y014730D01*
X032480Y014581D02*
X038230Y014581D01*
X039450Y013784D02*
X039450Y013784D01*
X039548Y013883D02*
X032480Y013883D01*
X032480Y013184D02*
X033350Y013184D01*
X033450Y013284D02*
X033450Y013284D01*
X033116Y012950D02*
X033116Y012950D01*
X032860Y012486D02*
X032480Y012486D01*
X032480Y011787D02*
X032860Y011787D01*
X034040Y011787D02*
X039360Y011787D01*
X039360Y012360D02*
X039360Y009032D01*
X038333Y009032D01*
X038116Y008942D01*
X037963Y008790D01*
X037662Y008790D01*
X037736Y008917D01*
X037830Y009268D01*
X037830Y009632D01*
X037736Y009983D01*
X037554Y010297D01*
X037297Y010554D01*
X036983Y010736D01*
X036632Y010830D01*
X036268Y010830D01*
X035917Y010736D01*
X035603Y010554D01*
X035346Y010297D01*
X035164Y009983D01*
X035125Y009836D01*
X035011Y009950D01*
X035200Y010139D01*
X035200Y010761D01*
X034761Y011200D01*
X034139Y011200D01*
X034040Y011101D01*
X034040Y012206D01*
X034194Y012360D01*
X039360Y012360D01*
X040540Y012486D02*
X040920Y012486D01*
X040920Y013184D02*
X040540Y013184D01*
X040540Y013206D02*
X040920Y013586D01*
X040920Y009205D01*
X040903Y009212D01*
X040540Y009212D01*
X040540Y013206D01*
X040540Y011787D02*
X040920Y011787D01*
X040920Y011089D02*
X040540Y011089D01*
X040540Y010390D02*
X040920Y010390D01*
X040920Y009692D02*
X040540Y009692D01*
X039360Y009692D02*
X037814Y009692D01*
X037756Y008993D02*
X038238Y008993D01*
X037461Y010390D02*
X039360Y010390D01*
X039360Y011089D02*
X034872Y011089D01*
X035200Y010390D02*
X035439Y010390D01*
X035125Y009064D02*
X034851Y008790D01*
X035238Y008790D01*
X035164Y008917D01*
X035125Y009064D01*
X035144Y008993D02*
X035054Y008993D01*
X034049Y008790D02*
X033851Y008790D01*
X033950Y008889D01*
X034049Y008790D01*
X033049Y008790D02*
X032851Y008790D01*
X032950Y008889D01*
X033049Y008790D01*
X032049Y008790D02*
X031851Y008790D01*
X031950Y008889D01*
X032049Y008790D01*
X030836Y007730D02*
X025920Y007730D01*
X025759Y007890D01*
X025833Y007860D01*
X030067Y007860D01*
X030284Y007950D01*
X030450Y008116D01*
X030836Y007730D01*
X035729Y004802D02*
X035848Y004802D01*
X037709Y004802D02*
X037848Y004802D01*
X037830Y004104D02*
X038070Y004104D01*
X038070Y003405D02*
X037830Y003405D01*
X036110Y003405D02*
X035850Y003405D01*
X035850Y004104D02*
X036110Y004104D01*
X034130Y004104D02*
X033770Y004104D01*
X033770Y003405D02*
X034130Y003405D01*
X032050Y003405D02*
X031790Y003405D01*
X031790Y004104D02*
X032050Y004104D01*
X030070Y004104D02*
X029830Y004104D01*
X029830Y003405D02*
X030070Y003405D01*
X022950Y005200D02*
X022789Y005200D01*
X022609Y005125D01*
X021047Y006688D01*
X021903Y006688D01*
X021920Y006695D01*
X021920Y006345D01*
X022001Y006150D01*
X022150Y006001D01*
X022950Y005200D01*
X022650Y005501D02*
X022234Y005501D01*
X022150Y006001D02*
X022150Y006001D01*
X021980Y006199D02*
X021535Y006199D01*
X020565Y005501D02*
X020149Y005501D01*
X020116Y005950D02*
X020866Y005200D01*
X020739Y005200D01*
X020534Y005115D01*
X018040Y007610D01*
X019860Y007610D01*
X019860Y006333D01*
X019950Y006116D01*
X020116Y005950D01*
X019915Y006199D02*
X019451Y006199D01*
X019860Y006898D02*
X018752Y006898D01*
X018054Y007596D02*
X019860Y007596D01*
X017951Y006199D02*
X017451Y006199D01*
X017253Y006898D02*
X016752Y006898D01*
X016980Y007170D02*
X016480Y007170D01*
X018540Y005109D01*
X018759Y005200D01*
X018950Y005200D01*
X016980Y007170D01*
X015951Y006199D02*
X015951Y006199D01*
X016649Y005501D02*
X016650Y005501D01*
X016950Y005200D02*
X015230Y006920D01*
X015230Y006920D01*
X016950Y005200D01*
X016950Y005200D01*
X018149Y005501D02*
X018650Y005501D01*
X015252Y006898D02*
X015253Y006898D01*
X012047Y004104D02*
X011790Y004104D01*
X011790Y003405D02*
X012050Y003405D01*
X010070Y003405D02*
X009830Y003405D01*
X009830Y004104D02*
X010070Y004104D01*
X024980Y015978D02*
X027420Y015978D01*
X027420Y016677D02*
X024980Y016677D01*
X025625Y017375D02*
X027625Y017375D01*
X028480Y016730D02*
X028670Y016920D01*
X028670Y016920D01*
X028501Y016750D01*
X028480Y016700D01*
X028480Y016730D01*
X029480Y015978D02*
X030420Y015978D01*
X033730Y017980D02*
X034170Y018420D01*
X038331Y018420D01*
X038180Y018269D01*
X038180Y017980D01*
X033730Y017980D01*
X033823Y018074D02*
X038180Y018074D01*
X039878Y018772D02*
X040360Y018772D01*
X040360Y019471D02*
X039078Y019471D01*
X040360Y020169D02*
X034907Y020169D01*
X034980Y020868D02*
X040360Y020868D01*
X041540Y020868D02*
X041581Y020868D01*
X041603Y020846D02*
X041917Y020664D01*
X042268Y020570D01*
X042632Y020570D01*
X042983Y020664D01*
X043297Y020846D01*
X043554Y021103D01*
X043700Y021355D01*
X043700Y021139D01*
X044139Y020700D01*
X044450Y020700D01*
X044230Y020480D01*
X041845Y020480D01*
X041650Y020399D01*
X041540Y020290D01*
X041540Y020908D01*
X041603Y020846D01*
X040360Y021566D02*
X035200Y021566D01*
X035200Y022265D02*
X040360Y022265D01*
X040360Y022963D02*
X034998Y022963D01*
X035411Y023662D02*
X040360Y023662D01*
X041540Y023662D02*
X044920Y023662D01*
X044920Y024360D02*
X041540Y024360D01*
X040360Y024360D02*
X036110Y024360D01*
X038808Y025059D02*
X040360Y025059D01*
X041540Y025059D02*
X044592Y025059D01*
X044420Y025757D02*
X042091Y025757D01*
X042790Y026456D02*
X044420Y026456D01*
X045480Y026456D02*
X046206Y026456D01*
X045920Y025757D02*
X045480Y025757D01*
X047007Y025757D02*
X047007Y025757D01*
X047480Y026456D02*
X047706Y026456D01*
X048507Y025757D02*
X048507Y025757D01*
X049205Y026456D02*
X049206Y026456D01*
X050007Y025757D02*
X050007Y025757D01*
X049308Y025059D02*
X049309Y025059D01*
X050705Y026456D02*
X050706Y026456D01*
X051401Y027154D02*
X051404Y027154D01*
X051775Y027853D02*
X052065Y027853D01*
X052050Y028551D02*
X051790Y028551D01*
X051691Y029250D02*
X052149Y029250D01*
X053671Y029250D02*
X054229Y029250D01*
X054130Y028551D02*
X053770Y028551D01*
X053755Y027853D02*
X054145Y027853D01*
X055401Y027154D02*
X056404Y027154D01*
X056125Y027853D02*
X055835Y027853D01*
X055850Y028551D02*
X056110Y028551D01*
X056209Y029250D02*
X055751Y029250D01*
X057731Y029250D02*
X058169Y029250D01*
X058070Y028551D02*
X057830Y028551D01*
X057815Y027853D02*
X058085Y027853D01*
X057904Y027154D02*
X057480Y027154D01*
X057206Y026456D02*
X057205Y026456D01*
X058007Y025757D02*
X058507Y025757D01*
X058705Y026456D02*
X059206Y026456D01*
X060007Y025757D02*
X063192Y025757D01*
X063192Y026456D02*
X060705Y026456D01*
X061401Y027154D02*
X063192Y027154D01*
X063192Y027853D02*
X061755Y027853D01*
X061770Y028551D02*
X063192Y028551D01*
X061761Y029250D02*
X061671Y029250D01*
X061570Y029948D02*
X001200Y029948D01*
X001200Y029250D02*
X002199Y029250D01*
X002100Y028551D02*
X001200Y028551D01*
X001200Y027853D02*
X002115Y027853D01*
X002124Y027154D02*
X002370Y027154D01*
X003550Y027154D02*
X004420Y027154D01*
X004650Y026501D02*
X004650Y026501D01*
X004695Y026456D02*
X003550Y026456D01*
X003550Y025757D02*
X005393Y025757D01*
X006092Y025059D02*
X003550Y025059D01*
X006194Y026456D02*
X006695Y026456D01*
X006893Y025757D02*
X007393Y025757D01*
X007591Y025059D02*
X007920Y025059D01*
X008893Y025757D02*
X008920Y025757D01*
X008695Y026456D02*
X008194Y026456D01*
X008420Y027154D02*
X007496Y027154D01*
X007835Y027853D02*
X008125Y027853D01*
X008110Y028551D02*
X007850Y028551D01*
X007751Y029250D02*
X008209Y029250D01*
X009731Y029250D02*
X010169Y029250D01*
X010070Y028551D02*
X009830Y028551D01*
X009815Y027853D02*
X010085Y027853D01*
X010404Y027154D02*
X009496Y027154D01*
X011205Y026456D02*
X011706Y026456D01*
X011007Y025757D02*
X010980Y025757D01*
X011980Y025059D02*
X012309Y025059D01*
X012507Y025757D02*
X013007Y025757D01*
X013205Y026456D02*
X013706Y026456D01*
X014507Y025757D02*
X015007Y025757D01*
X015205Y026456D02*
X015706Y026456D01*
X016507Y025757D02*
X017007Y025757D01*
X017205Y026456D02*
X017706Y026456D01*
X018507Y025757D02*
X019007Y025757D01*
X019205Y026456D02*
X019706Y026456D01*
X019250Y026501D02*
X019250Y026501D01*
X019480Y027154D02*
X020404Y027154D01*
X020065Y027853D02*
X019775Y027853D01*
X019790Y028551D02*
X020050Y028551D01*
X020149Y029250D02*
X019691Y029250D01*
X018169Y029250D02*
X017731Y029250D01*
X017830Y028551D02*
X018070Y028551D01*
X018085Y027853D02*
X017815Y027853D01*
X017480Y027154D02*
X018404Y027154D01*
X016404Y027154D02*
X015480Y027154D01*
X014404Y027154D02*
X013480Y027154D01*
X012404Y027154D02*
X011480Y027154D01*
X011775Y027853D02*
X012065Y027853D01*
X012050Y028551D02*
X011790Y028551D01*
X011691Y029250D02*
X012149Y029250D01*
X013671Y029250D02*
X014229Y029250D01*
X014130Y028551D02*
X013770Y028551D01*
X013755Y027853D02*
X014145Y027853D01*
X015835Y027853D02*
X016125Y027853D01*
X016110Y028551D02*
X015850Y028551D01*
X015751Y029250D02*
X016209Y029250D01*
X021671Y029250D02*
X022199Y029250D01*
X022100Y028551D02*
X021770Y028551D01*
X021755Y027853D02*
X022115Y027853D01*
X022370Y027154D02*
X021480Y027154D01*
X021205Y026456D02*
X022121Y026456D01*
X021439Y025757D02*
X020507Y025757D01*
X019808Y025059D02*
X021360Y025059D01*
X021360Y024360D02*
X019110Y024360D01*
X018411Y023662D02*
X021360Y023662D01*
X022540Y023662D02*
X025920Y023662D01*
X025920Y024360D02*
X022540Y024360D01*
X022540Y025059D02*
X025920Y025059D01*
X025393Y025757D02*
X023091Y025757D01*
X023550Y026456D02*
X024695Y026456D01*
X024420Y027154D02*
X023550Y027154D01*
X023805Y027853D02*
X024095Y027853D01*
X024080Y028551D02*
X023820Y028551D01*
X023721Y029250D02*
X024179Y029250D01*
X025701Y029250D02*
X026229Y029250D01*
X026130Y028551D02*
X025800Y028551D01*
X025785Y027853D02*
X026145Y027853D01*
X026420Y027154D02*
X025496Y027154D01*
X026194Y026456D02*
X026695Y026456D01*
X026893Y025757D02*
X026920Y025757D01*
X028980Y025757D02*
X029007Y025757D01*
X029205Y026456D02*
X029706Y026456D01*
X030507Y025757D02*
X031007Y025757D01*
X031205Y026456D02*
X031706Y026456D01*
X032507Y025757D02*
X033007Y025757D01*
X033205Y026456D02*
X033706Y026456D01*
X033480Y027154D02*
X034404Y027154D01*
X034145Y027853D02*
X033755Y027853D01*
X033770Y028551D02*
X034130Y028551D01*
X034229Y029250D02*
X033671Y029250D01*
X032149Y029250D02*
X031691Y029250D01*
X031790Y028551D02*
X032050Y028551D01*
X032065Y027853D02*
X031775Y027853D01*
X031480Y027154D02*
X032404Y027154D01*
X030404Y027154D02*
X029480Y027154D01*
X029815Y027853D02*
X030085Y027853D01*
X030070Y028551D02*
X029830Y028551D01*
X029731Y029250D02*
X030169Y029250D01*
X028209Y029250D02*
X027751Y029250D01*
X027850Y028551D02*
X028110Y028551D01*
X028125Y027853D02*
X027835Y027853D01*
X027496Y027154D02*
X028404Y027154D01*
X029980Y025059D02*
X030309Y025059D01*
X031110Y024360D02*
X031610Y024360D01*
X031808Y025059D02*
X032309Y025059D01*
X036904Y027154D02*
X038404Y027154D01*
X038085Y027853D02*
X037815Y027853D01*
X037830Y028551D02*
X038070Y028551D01*
X038169Y029250D02*
X037731Y029250D01*
X036209Y029250D02*
X035751Y029250D01*
X035850Y028551D02*
X036110Y028551D01*
X036103Y027853D02*
X035835Y027853D01*
X039775Y027853D02*
X040065Y027853D01*
X040050Y028551D02*
X039790Y028551D01*
X039691Y029250D02*
X040149Y029250D01*
X041671Y029250D02*
X042199Y029250D01*
X042100Y028551D02*
X041770Y028551D01*
X041755Y027853D02*
X042115Y027853D01*
X041820Y027154D02*
X040904Y027154D01*
X041121Y026456D02*
X040205Y026456D01*
X040439Y025757D02*
X039507Y025757D01*
X043472Y027154D02*
X044420Y027154D01*
X045480Y027154D02*
X046420Y027154D01*
X046145Y027853D02*
X045785Y027853D01*
X045800Y028551D02*
X046130Y028551D01*
X046229Y029250D02*
X045701Y029250D01*
X044179Y029250D02*
X043721Y029250D01*
X043820Y028551D02*
X044080Y028551D01*
X044095Y027853D02*
X043805Y027853D01*
X047480Y027154D02*
X048404Y027154D01*
X048125Y027853D02*
X047835Y027853D01*
X047850Y028551D02*
X048110Y028551D01*
X048209Y029250D02*
X047751Y029250D01*
X049731Y029250D02*
X050169Y029250D01*
X050070Y028551D02*
X049830Y028551D01*
X049815Y027853D02*
X050085Y027853D01*
X049904Y027154D02*
X049480Y027154D01*
X054110Y024360D02*
X061493Y024360D01*
X061430Y023662D02*
X053980Y023662D01*
X053998Y022963D02*
X060629Y022963D01*
X060360Y022265D02*
X054200Y022265D01*
X054200Y021566D02*
X060360Y021566D01*
X060360Y020868D02*
X053980Y020868D01*
X053419Y020169D02*
X060360Y020169D01*
X060360Y019471D02*
X057578Y019471D01*
X058378Y018772D02*
X060360Y018772D01*
X060492Y018074D02*
X059220Y018074D01*
X059114Y017375D02*
X060360Y017375D01*
X060360Y016677D02*
X059220Y016677D01*
X059220Y015978D02*
X060360Y015978D01*
X061540Y016437D02*
X061540Y016463D01*
X061553Y016450D01*
X061540Y016437D01*
X061540Y015479D02*
X061553Y015466D01*
X061540Y015453D01*
X061540Y015479D01*
X060360Y015280D02*
X059209Y015280D01*
X059170Y014581D02*
X060360Y014581D01*
X060360Y013883D02*
X051480Y013883D01*
X051480Y014581D02*
X056730Y014581D01*
X060360Y013184D02*
X051480Y013184D01*
X052450Y012784D02*
X052450Y012784D01*
X052151Y012486D02*
X051480Y012486D01*
X053040Y011706D02*
X053194Y011860D01*
X053628Y011860D01*
X053610Y011817D01*
X053610Y011200D01*
X053139Y011200D01*
X053040Y011101D01*
X053040Y011706D01*
X053121Y011787D02*
X053610Y011787D01*
X054790Y011456D02*
X055194Y011860D01*
X058206Y011860D01*
X058360Y011706D01*
X058360Y009833D01*
X058450Y009616D01*
X058616Y009450D01*
X058886Y009180D01*
X058648Y009180D01*
X058601Y009133D01*
X056750Y010984D01*
X056750Y011109D01*
X056628Y011403D01*
X056403Y011628D01*
X056109Y011750D01*
X055791Y011750D01*
X055497Y011628D01*
X055272Y011403D01*
X055150Y011109D01*
X055150Y010798D01*
X054917Y010736D01*
X054790Y010662D01*
X054790Y011456D01*
X054790Y011089D02*
X055150Y011089D01*
X055121Y011787D02*
X058279Y011787D01*
X058360Y011089D02*
X056750Y011089D01*
X057344Y010390D02*
X058360Y010390D01*
X058418Y009692D02*
X058043Y009692D01*
X057073Y008993D02*
X056756Y008993D01*
X056208Y008295D02*
X057771Y008295D01*
X058304Y007596D02*
X060470Y007596D01*
X061168Y006898D02*
X059002Y006898D01*
X059701Y006199D02*
X061220Y006199D01*
X060399Y005501D02*
X063192Y005501D01*
X063192Y004802D02*
X061649Y004802D01*
X062360Y007374D02*
X059540Y010194D01*
X059540Y010254D01*
X059791Y010150D01*
X059916Y010150D01*
X060106Y009960D01*
X060323Y009870D01*
X061434Y009870D01*
X061573Y009731D01*
X061889Y009600D01*
X063011Y009600D01*
X063192Y009675D01*
X063192Y009180D01*
X062648Y009180D01*
X062220Y008752D01*
X062220Y008148D01*
X062360Y008008D01*
X062360Y007374D01*
X062360Y007596D02*
X062138Y007596D01*
X062220Y008295D02*
X061440Y008295D01*
X060741Y008993D02*
X062461Y008993D01*
X061668Y009692D02*
X060043Y009692D01*
X059771Y008295D02*
X059680Y008295D01*
X060750Y011050D02*
X060750Y011109D01*
X060628Y011403D01*
X060403Y011628D01*
X060109Y011750D01*
X059791Y011750D01*
X059540Y011646D01*
X059540Y011860D01*
X061424Y011860D01*
X061573Y011711D01*
X061889Y011580D01*
X063011Y011580D01*
X063192Y011655D01*
X063192Y011245D01*
X063011Y011320D01*
X061889Y011320D01*
X061573Y011189D01*
X061434Y011050D01*
X060750Y011050D01*
X060750Y011089D02*
X061472Y011089D01*
X061497Y011787D02*
X059540Y011787D01*
X061540Y013194D02*
X061540Y014495D01*
X061714Y014321D01*
X061997Y014204D01*
X062903Y014204D01*
X063186Y014321D01*
X063192Y014327D01*
X063192Y013225D01*
X063011Y013300D01*
X061889Y013300D01*
X061573Y013169D01*
X061569Y013165D01*
X061540Y013194D01*
X061550Y013184D02*
X061609Y013184D01*
X061540Y013883D02*
X063192Y013883D01*
X056680Y017980D02*
X052230Y017980D01*
X052670Y018420D01*
X056831Y018420D01*
X056680Y018269D01*
X056680Y017980D01*
X056680Y018074D02*
X052323Y018074D01*
X049670Y016420D02*
X049501Y016250D01*
X049420Y016055D01*
X049420Y011200D01*
X049139Y011200D01*
X048950Y011011D01*
X048761Y011200D01*
X048480Y011200D01*
X048480Y016230D01*
X048670Y016420D01*
X049670Y016420D01*
X049420Y015978D02*
X048480Y015978D01*
X047480Y016700D02*
X047480Y016730D01*
X047670Y016920D01*
X047670Y016920D01*
X047501Y016750D01*
X047480Y016700D01*
X046420Y016677D02*
X043980Y016677D01*
X043980Y017230D02*
X044170Y017420D01*
X046670Y017420D01*
X046501Y017250D01*
X046420Y017055D01*
X046420Y011200D01*
X046139Y011200D01*
X045950Y011011D01*
X045761Y011200D01*
X045139Y011200D01*
X044950Y011011D01*
X044761Y011200D01*
X044139Y011200D01*
X043980Y011041D01*
X043980Y017230D01*
X044125Y017375D02*
X046625Y017375D01*
X046420Y015978D02*
X043980Y015978D01*
X043980Y015280D02*
X046420Y015280D01*
X046420Y014581D02*
X043980Y014581D01*
X043980Y013883D02*
X046420Y013883D01*
X046420Y013184D02*
X043980Y013184D01*
X043980Y012486D02*
X046420Y012486D01*
X046420Y011787D02*
X043980Y011787D01*
X043980Y011089D02*
X044028Y011089D01*
X044872Y011089D02*
X045028Y011089D01*
X045872Y011089D02*
X046028Y011089D01*
X048480Y011787D02*
X049420Y011787D01*
X049028Y011089D02*
X048872Y011089D01*
X051480Y011787D02*
X051860Y011787D01*
X049420Y012486D02*
X048480Y012486D01*
X048480Y013184D02*
X049420Y013184D01*
X049420Y013883D02*
X048480Y013883D01*
X048480Y014581D02*
X049420Y014581D01*
X049420Y015280D02*
X048480Y015280D01*
X050480Y015280D02*
X050530Y015280D01*
X050501Y015250D02*
X050480Y015200D01*
X050480Y015730D01*
X050670Y015920D01*
X051200Y015920D01*
X051150Y015899D01*
X051001Y015750D01*
X050650Y015399D01*
X050650Y015399D01*
X050501Y015250D01*
X051001Y015750D02*
X051001Y015750D01*
X043972Y020868D02*
X043319Y020868D01*
X043830Y021891D02*
X043889Y021950D01*
X043830Y022009D01*
X043830Y021891D01*
X043902Y022963D02*
X043388Y022963D01*
X059308Y025059D02*
X061380Y025059D01*
X059904Y027154D02*
X059401Y027154D01*
X059775Y027853D02*
X060065Y027853D01*
X060050Y028551D02*
X059790Y028551D01*
X059691Y029250D02*
X060149Y029250D01*
X061540Y021487D02*
X061553Y021474D01*
X061540Y021460D01*
X061540Y021487D01*
X061540Y020503D02*
X061714Y020329D01*
X061997Y020211D01*
X062903Y020211D01*
X063186Y020329D01*
X063192Y020335D01*
X063192Y018573D01*
X063186Y018579D01*
X062903Y018696D01*
X061997Y018696D01*
X061714Y018579D01*
X061685Y018550D01*
X061540Y018694D01*
X061540Y020503D01*
X061540Y020169D02*
X063192Y020169D01*
X063192Y019471D02*
X061540Y019471D01*
X061540Y018772D02*
X063192Y018772D01*
X053610Y008700D02*
X053139Y008700D01*
X052950Y008889D01*
X052761Y008700D01*
X052139Y008700D01*
X051950Y008889D01*
X051761Y008700D01*
X051139Y008700D01*
X050950Y008889D01*
X050761Y008700D01*
X050534Y008700D01*
X050694Y008540D01*
X053610Y008540D01*
X053610Y008700D01*
X049586Y007980D02*
X049314Y007980D01*
X049450Y008116D01*
X049586Y007980D01*
X051399Y005501D02*
X051900Y005501D01*
X051669Y004802D02*
X052171Y004802D01*
X048110Y004104D02*
X047850Y004104D01*
X047850Y003405D02*
X048110Y003405D01*
X041764Y004802D02*
X041649Y004802D01*
X041110Y006540D02*
X040694Y006540D01*
X040547Y006688D01*
X040903Y006688D01*
X040973Y006717D01*
X041001Y006650D01*
X041110Y006540D01*
X021360Y019471D02*
X019578Y019471D01*
X021360Y020169D02*
X014919Y020169D01*
X015928Y020868D02*
X021360Y020868D01*
X021360Y021566D02*
X016200Y021566D01*
X017014Y022265D02*
X021360Y022265D01*
X021360Y022963D02*
X017713Y022963D01*
X016912Y023662D02*
X016411Y023662D01*
X017110Y024360D02*
X017610Y024360D01*
X017808Y025059D02*
X018309Y025059D01*
X016309Y025059D02*
X015808Y025059D01*
X015610Y024360D02*
X015110Y024360D01*
X014912Y023662D02*
X014411Y023662D01*
X013610Y024360D02*
X013110Y024360D01*
X013808Y025059D02*
X014309Y025059D01*
X006420Y027154D02*
X005496Y027154D01*
X005785Y027853D02*
X006145Y027853D01*
X006130Y028551D02*
X005800Y028551D01*
X005701Y029250D02*
X006229Y029250D01*
X004179Y029250D02*
X003721Y029250D01*
X003820Y028551D02*
X004080Y028551D01*
X004095Y027853D02*
X003805Y027853D01*
X022540Y020908D02*
X022540Y019790D01*
X023150Y020399D01*
X023345Y020480D01*
X025730Y020480D01*
X025920Y020670D01*
X025920Y020859D01*
X025761Y020700D01*
X025139Y020700D01*
X024700Y021139D01*
X024700Y021355D01*
X024554Y021103D01*
X024297Y020846D01*
X023983Y020664D01*
X023632Y020570D01*
X023268Y020570D01*
X022917Y020664D01*
X022603Y020846D01*
X022540Y020908D01*
X022540Y020868D02*
X022581Y020868D01*
X022540Y020169D02*
X022919Y020169D01*
X024319Y020868D02*
X024972Y020868D01*
X024830Y021891D02*
X024889Y021950D01*
X024830Y022009D01*
X024830Y021891D01*
X024902Y022963D02*
X024388Y022963D01*
X009670Y017420D02*
X009650Y017399D01*
X009501Y017250D01*
X009480Y017200D01*
X009480Y017230D01*
X009670Y017420D01*
X009670Y017420D01*
X009625Y017375D02*
X009625Y017375D01*
M02*
